<?xml version="1.0" encoding="utf-8"?>
<!-- Generator: Adobe Illustrator 24.0.1, SVG Export Plug-In . SVG Version: 6.00 Build 0)  -->
<svg version="1.1" xmlns="http://www.w3.org/2000/svg" xmlns:xlink="http://www.w3.org/1999/xlink" x="0px" y="0px"
	 viewBox="0 0 500 500" style="enable-background:new 0 0 500 500;" xml:space="preserve">
<style type="text/css">
	.st0{display:none;}
	.st1{display:inline;}
	.st2{fill:none;stroke:#BB8B41;stroke-width:25;stroke-miterlimit:10;}
	.st3{fill:#BB8B41;}
</style>
<g id="Layer_1" class="st0">
	<g class="st1">
		<path class="st2" d="M188.1,278v129.6L23.4,242.9L188.1,92.4v115.3h288.5V278H188.1z"/>
	</g>
</g>
<g id="Layer_2">
	<path class="st3" d="M74.9,227.9c123.9,0,242.7,0,361.6,0c12.1,0,24.3-0.3,36.4,0.1c15.8,0.5,26,9.8,24.6,22.8
		c-1.6,15.7-12,20.9-26.7,20.8c-75.8-0.2-151.7-0.1-227.5-0.1c-54.6,0-109.1,0-166.4,0c4.1,5.4,6.5,9.2,9.5,12.4
		c22.8,24.3,45.8,48.5,68.6,72.9c9.5,10.1,12.3,21.8,2.2,32.4c-10.3,10.8-23.2,8.1-32.4-1.5C85.6,347.1,47,306,8.7,264.6
		c-9.8-10.6-7.7-22,2.1-32.4c37.1-39.2,73.9-78.7,111.1-117.8c11.7-12.3,27-14,35.1-4.2c10.1,12,6.4,23.6-3.4,34
		C128.5,171,103.2,197.8,74.9,227.9z"/>
</g>
</svg>
