<?xml version="1.0" encoding="utf-8"?>
<!-- Generator: Adobe Illustrator 24.0.1, SVG Export Plug-In . SVG Version: 6.00 Build 0)  -->
<svg version="1.1" xmlns="http://www.w3.org/2000/svg" xmlns:xlink="http://www.w3.org/1999/xlink" x="0px" y="0px"
	 viewBox="0 0 1200 700" style="enable-background:new 0 0 1200 700;" xml:space="preserve">
<style type="text/css">
	.st0{display:none;}
	.st1{fill:none;stroke:#FECB00;stroke-width:7;stroke-linecap:round;stroke-miterlimit:10;}
	.st2{fill:none;stroke:#FECB00;stroke-width:5;stroke-linecap:round;stroke-miterlimit:10;
		stroke-dasharray: 1000;
		stroke-dashoffset: 1000;
		animation: dash 5s ease-out infinite;
		}

		@keyframes dash {
			to {
				stroke-dashoffset: 0;
			}
		}
	.st3{fill:#FFFFFF;stroke:#001B5D;stroke-width:4;stroke-miterlimit:10;}
</style>
<g id="Layer_1" class="st0">

		<image style="display:inline;overflow:visible;" width="1347" height="1500" xlink:href="17sk011_scandinavie.jpg"  transform="matrix(0.9524 0 0 0.9524 -51.842 -390.5546)">
	</image>
</g>
<g id="Layer_2">
	<path class="st1" d="M525.5,726.5"/>
	<path class="st2" d="M616.5,549.5c0,0-17,14-23,31c-4.6,13.1-32.3,22.6-44.8,26.3c-3.8,1.1-7,3.5-9.3,6.7c-3.4,4.8-9.4,12-18,17.2
		c-5.9,3.5-10,9.4-11.4,16.1c-2.7,12.9-4.2,32.9,8.5,45.7"/>
	<path class="st2" d="M613.5,554.5c0,0-17,14-23,31s-51,28-51,28s-30,31-49,38"/>
	<path class="st2" d="M606.5,547.5c0,0-1,21-34,23s-30,1-36,6s-59-5-77,8s-46,77-46,77s-40,17-44,25"/>
	<path class="st2" d="M610.5,546.5c0,0-1,21-34,23s-30,1-36,6c-4.4,3.7-34.1-0.7-56.7,1.8c-13,1.5-26-2.4-36.1-10.8
		c-8.8-7.3-21-14.7-36.2-17c-30.2-4.6-14.3-10.8-40.6-21.9c-6.2-2.6-11.8-6.5-16.3-11.5c-7.6-8.2-17.7-19.9-17-23.7c1-6-8-25-29-4
		c-12.1,12.1-23.6,16.6-32.3,19.2c-7.2,2.1-16.2,10.8-23.7,10.8c-8,0-10.9-2-16-6c-9-7,9-28,15-29c4-0.7-26.7-18.9-45.2-32.7
		c-10.2-7.6-23-10.8-35.6-9c-17.2,2.4-40.4,2.3-56.2-11.3c-24-20.6-53.9,3.7-61.9,11c-1.8,1.7-3.7,3.2-5.8,4.5
		c-4.7,3.1-12.6,7.8-15.3,6.4"/>
	<path class="st2" d="M610.5,546.9c0,0-1,21-34,23s-30,1-36,6c-5,4.2-43.2-2.2-65.9,3.4c-7,1.7-14.5-0.3-19.5-5.5
		c-8.6-8.9-23.5-20.8-43.6-23.8c-33-5-11-12-49-25c0,0-26-26-25-32s-8-25-29-4s-40,19-46,24c-6,5-42,12-44,19s-24,35-21,67
		s-62,26-55,66"/>
	<path class="st2" d="M613.7,549.5c0,0-37-123-52-132c0,0-23-9-29-40s-66-101-58-115c8-14-40-68-65-69s-52,0-61,4s-22-1-34-10
		s-65-3-64,15s-11,63-26,70s-21,36-21,36"/>
	<path class="st2" d="M613.5,545.5c0,0-7.8-26-17.7-55l0,0c0,0-45.3,24-90.3-19c-31.3-29.9-47.6-40.5-49.2-49.5
		c-1.2-6.5-4.3-12.5-9.4-16.8c-4.1-3.4-7.1-9.3-6.4-19.7c2-27-3-66-9-68s2-25,11-25c8.8,0-36.6-32.3-14.8-76.6
		c1.1-2.3,2-4.7,2.4-7.2c2.2-12.1,10.3-49.7,30.4-62.2c24-15,45-93,41-103s21-30,25-30s13-30,8-38"/>
	<path class="st2" d="M610.5,547.1c0,0-1,21-34,23s-30,1-36,6c-5,4.2-43.2-2.2-65.9,3.4c-7,1.7-14.5-0.3-19.5-5.5
		c-8.6-8.9-23.5-20.8-43.6-23.8c-33-5-11-12-49-25c0,0-26-26-25-32s-8-25-29-4c-4.7,4.7-9.2,8.2-13.6,10.9c0,0,19.6-54.5-0.4-67.5
		s-46-43-42-60s-32-32-36-39s-1-29-37-36s-38-37-38-37"/>
	<circle class="st3" cx="612" cy="548" r="14.5"/>
</g>
</svg>
