<?xml version="1.0" encoding="utf-8"?>
<!-- Generator: Adobe Illustrator 24.0.1, SVG Export Plug-In . SVG Version: 6.00 Build 0)  -->
<svg version="1.1" id="Layer_1" xmlns="http://www.w3.org/2000/svg" xmlns:xlink="http://www.w3.org/1999/xlink" x="0px" y="0px"
	 viewBox="0 0 1300 800" style="enable-background:new 0 0 1300 800;" xml:space="preserve">
<style type="text/css">
	.st0{fill:none;stroke:#FECB00;stroke-width:3;stroke-miterlimit:10;}
	.st1{fill:none;stroke:#000000;stroke-miterlimit:10;}
	.st2{fill:#FECB00;}
	.st3{font-family:'SwedenSans';}
	.st4{font-size:18px;}
	.st5{fill:none;stroke:#FECB00;stroke-miterlimit:10;}
</style>
<g>
	<g>
		<line class="st0" x1="205.9" y1="634.6" x2="1204.9" y2="634.6"/>
		<g>
			<g>
				<line class="st1" x1="205.9" y1="634.6" x2="205.9" y2="621.7"/>
				<line class="st0" x1="372.4" y1="634.6" x2="372.4" y2="621.7"/>
				<line class="st0" x1="538.9" y1="634.6" x2="538.9" y2="621.7"/>
				<line class="st0" x1="705.4" y1="634.6" x2="705.4" y2="621.7"/>
				<line class="st0" x1="871.9" y1="634.6" x2="871.9" y2="621.7"/>
				<line class="st0" x1="1038.4" y1="634.6" x2="1038.4" y2="621.7"/>
				<line class="st0" x1="1204.9" y1="634.6" x2="1204.9" y2="621.7"/>
			</g>
			<g>
			</g>
		</g>
	</g>
	<g>
		<g>
			<text transform="matrix(1 0 0 1 110.6132 652.1647)"><tspan x="0" y="0" class="st2 st3 st4">40</tspan><tspan x="20.3" y="0" class="st2 st3 st4">0,</tspan><tspan x="35.3" y="0" class="st2 st3 st4">0000</tspan></text>
			<text transform="matrix(1 0 0 1 110.2895 523.0007)"><tspan x="0" y="0" class="st2 st3 st4">60</tspan><tspan x="20.6" y="0" class="st2 st3 st4">0,</tspan><tspan x="35.6" y="0" class="st2 st3 st4">0000</tspan></text>
			<text transform="matrix(1 0 0 1 110.5415 393.8376)"><tspan x="0" y="0" class="st2 st3 st4">80</tspan><tspan x="20.3" y="0" class="st2 st3 st4">0,</tspan><tspan x="35.4" y="0" class="st2 st3 st4">0000</tspan></text>
			<text transform="matrix(1 0 0 1 96.2133 264.674)"><tspan x="0" y="0" class="st2 st3 st4">1</tspan><tspan x="8.2" y="0" class="st2 st3 st4">,</tspan><tspan x="12.5" y="0" class="st2 st3 st4">00</tspan><tspan x="34.7" y="0" class="st2 st3 st4">0,</tspan><tspan x="49.7" y="0" class="st2 st3 st4">0000</tspan></text>
			<text transform="matrix(1 0 0 1 97.8881 135.5105)"><tspan x="0" y="0" class="st2 st3 st4">1,20</tspan><tspan x="33" y="0" class="st2 st3 st4">0,</tspan><tspan x="48" y="0" class="st2 st3 st4">0000</tspan></text>
		</g>
		<line class="st0" x1="205.9" y1="634.6" x2="205.9" y2="117.9"/>
		<g>
			<g>
				<line class="st5" x1="205.9" y1="634.6" x2="230.8" y2="634.6"/>
				<line class="st0" x1="205.9" y1="505.4" x2="230.8" y2="505.4"/>
				<line class="st0" x1="205.9" y1="376.3" x2="230.8" y2="376.3"/>
				<line class="st0" x1="205.9" y1="247.1" x2="230.8" y2="247.1"/>
				<line class="st0" x1="205.9" y1="117.9" x2="230.8" y2="117.9"/>
			</g>
			<g>
			</g>
		</g>
	</g>
	<g>
		<text transform="matrix(1 0 0 1 1101.481 677.7975)" class="st2 st3 st4">2020</text>
		<text transform="matrix(1 0 0 1 933.9633 677.7975)" class="st2 st3 st4">2000</text>
		<text transform="matrix(1 0 0 1 769.6059 677.7975)" class="st2 st3 st4">1980</text>
		<text transform="matrix(1 0 0 1 603.1415 677.7975)"><tspan x="0" y="0" class="st2 st3 st4">1</tspan><tspan x="8.2" y="0" class="st2 st3 st4">9</tspan><tspan x="17.4" y="0" class="st2 st3 st4">60</tspan></text>
		<text transform="matrix(1 0 0 1 436.6416 677.7975)" class="st2 st3 st4">1940</text>
		<text transform="matrix(1 0 0 1 270.2046 677.7975)" class="st2 st3 st4">1920</text>
	</g>
</g>
</svg>
