<?xml version="1.0" encoding="utf-8"?>
<!-- Generator: Adobe Illustrator 24.0.1, SVG Export Plug-In . SVG Version: 6.00 Build 0)  -->
<svg version="1.1" id="Layer_1" xmlns="http://www.w3.org/2000/svg" xmlns:xlink="http://www.w3.org/1999/xlink" x="0px" y="0px"
	 viewBox="0 0 500 500" style="enable-background:new 0 0 500 500;" xml:space="preserve">
<style type="text/css">
	.st0{display:none;}
	.st1{display:inline;}
	.st2{fill:none;stroke:#BB8B41;stroke-width:25;stroke-miterlimit:10;}
	.st3{fill:#4982D8;}
</style>
<g id="Layer_1_1_" class="st0">
	<g class="st1">
		<path class="st2" d="M188.1,278v129.6L23.4,242.9L188.1,92.4v115.3h288.5V278H188.1z"/>
	</g>
</g>
<g id="Layer_2_1_">
	<path class="st3" d="M272.1,75c0,123.9,0,242.7,0,361.6c0,12.1,0.3,24.3-0.1,36.4c-0.5,15.8-9.8,26-22.8,24.6
		c-15.7-1.6-20.9-12-20.8-26.7c0.2-75.8,0.1-151.7,0.1-227.5c0-54.6,0-109.1,0-166.4c-5.4,4.1-9.2,6.5-12.4,9.5
		c-24.3,22.8-48.5,45.8-72.9,68.6c-10.1,9.5-21.8,12.3-32.4,2.2c-10.8-10.3-8.1-23.2,1.5-32.4C152.9,85.7,194,47.1,235.4,8.8
		c10.6-9.8,22-7.7,32.4,2.1C307,48,346.5,84.8,385.6,122c12.3,11.7,14,27,4.2,35.1c-12,10.1-23.6,6.4-34-3.4
		C329,128.6,302.2,103.3,272.1,75z"/>
</g>
</svg>
