<?xml version="1.0" encoding="utf-8"?>
<!-- Generator: Adobe Illustrator 24.0.1, SVG Export Plug-In . SVG Version: 6.00 Build 0)  -->
<svg version="1.1" xmlns="http://www.w3.org/2000/svg" xmlns:xlink="http://www.w3.org/1999/xlink" x="0px" y="0px"
	 viewBox="0 0 1200 600" style="enable-background:new 0 0 1200 600;" xml:space="preserve">
<style type="text/css">
	.st0{fill:#FECB00;}
	.st1{fill:#FFFFFF;stroke:#001B5D;stroke-width:3;stroke-miterlimit:10;}
	.st2{fill:#001B5D;}
</style>
<g id="lines">
	<g>
		<g>
			<path class="st0" d="M41.6,71.8C39,132.8,39.2,194,42.1,255c2.9,60.6,9.8,120.9,13.3,181.4c2,34.2,2.7,68.4,0.5,102.6
				c-0.1,1.9,2.9,1.9,3,0c3.9-60.8-1.4-121.6-6.6-182.1c-5.2-60.5-8.9-121.1-9.4-181.8c-0.3-34.4,0.3-68.8,1.8-103.2
				C44.7,69.9,41.7,69.9,41.6,71.8L41.6,71.8z"/>
		</g>
	</g>
	<g>
		<g>
			<path class="st0" d="M76.5,77.1c-2,36.4,2.6,72.8,8.9,108.6c3.1,17.7,6.6,35.3,10.1,52.9c3.3,16.1,6.9,32.2,12.1,47.8
				c5.1,15.3,11.8,30,20.8,43.4c8.8,13,19.3,24.7,30.1,36c11,11.6,22.4,22.9,32.6,35.2c10.2,12.2,19,25.4,26.5,39.4
				c14.9,28,24.3,59,27.1,90.6c0.3,3.9,0.6,7.8,0.7,11.8c0.1,1.9,3.1,1.9,3,0c-1.2-31.2-8.7-62-21.6-90.5
				c-6.6-14.4-14.6-28.2-23.9-41c-9.3-12.7-19.9-24.3-30.8-35.6c-11-11.4-22.1-22.7-32-35.1c-10.3-12.8-18.6-26.8-24.8-42
				c-6.2-15.3-10.5-31.4-14.1-47.5c-3.7-16.9-6.9-33.9-10.1-50.9c-6.8-36.1-12.5-72.6-12.1-109.5c0.1-4.6,0.2-9.1,0.5-13.7
				C79.6,75.2,76.6,75.2,76.5,77.1L76.5,77.1z"/>
		</g>
	</g>
	<g>
		<g>
			<path class="st0" d="M107.7,74.9c12.6,44.5,14.7,91.2,25.4,136.1c9,37.8,24.7,75.9,54.3,102.2c30.2,26.7,70.2,37.8,108.8,45.4
				c21.7,4.3,44,7.2,64.7,15.6c18,7.4,34,19.2,47.2,33.4c29.2,31.5,43.5,73.3,49.8,115.1c0.8,5.6,1.5,11.1,2.1,16.7
				c0.2,1.9,3.2,1.9,3,0c-4.5-42.4-15.5-85.6-41.4-120.3c-11.3-15.1-25.1-28.5-41.2-38.4c-18.5-11.4-39.3-16.8-60.4-20.8
				c-39.9-7.6-81.4-14.8-115.9-37.8c-16.7-11.2-30.5-25.9-41.1-43c-10.5-17-17.9-35.7-23.4-54.9c-12.5-43.7-14.6-89.4-24.8-133.6
				c-1.3-5.6-2.7-11.2-4.3-16.7C110.1,72.3,107.2,73.1,107.7,74.9L107.7,74.9z"/>
		</g>
	</g>
	<g>
		<g>
			<path class="st0" d="M147.7,80.4c3.8,28.2,9.9,56,16.7,83.6c3.3,13.4,6.7,26.8,10.3,40.1c2.8,10.5,5.7,21,9.7,31.1
				c7.3,18.8,18.5,37,37,46.5c22.7,11.7,49.7,8.5,74.3,11.5c27.6,3.4,55,10.3,81.9,17.3c26.5,6.9,52.7,14.8,78.7,23.5
				c26.3,8.9,52.2,18.7,77.7,29.5c12.3,5.2,24.5,10.5,36.5,16.3c11.7,5.6,23.2,11.8,33.3,20c35.9,29.3,44,77.9,47.7,121.5
				c0.5,5.4,0.9,10.8,1.2,16.1c0.1,1.9,3.1,1.9,3,0c-3-42.8-7-90.3-35.1-124.9c-15.8-19.5-38.3-30.8-60.8-40.9
				c-24.9-11.2-50.3-21.6-75.9-31c-51.4-18.9-104.3-34.3-158-45.4c-13.8-2.8-27.7-5.2-41.7-6.2c-12.6-0.9-25.4-0.9-37.9-2.9
				c-12.1-1.9-23.8-5.9-33.3-13.7c-8-6.5-14.2-14.9-19-23.9c-10.9-20.3-15.8-43.4-21.4-65.5c-7.1-27.5-13.8-55.2-18.6-83.2
				c-1.2-6.8-2.2-13.5-3.1-20.3C150.4,77.7,147.5,78.5,147.7,80.4L147.7,80.4z"/>
		</g>
	</g>
	<g>
		<g>
			<path class="st0" d="M191.8,80.6c2.5,18.2,5.1,36.5,7.6,54.7c2.2,16,3.9,32.2,7.5,47.9c3.2,13.7,8.2,27.2,17.2,38.3
				c7.9,9.6,18.3,16.6,29.7,21.4c24.9,10.4,52.7,11,79.2,13c32.4,2.3,64.6,6.8,96.5,13c63.2,12.3,124.8,31.7,184.6,55.6
				c60.9,24.4,119.7,53.4,177.1,85c28.7,15.8,57,32.2,85.1,49.1c13.1,7.9,26.8,15.4,39.1,24.4c6.5,4.8,12.6,10.4,16.9,17.2
				c4.1,6.6,6.3,14.2,7.4,21.9c1.1,7.8,1.1,15.8,1.1,23.7c0,1.9,3,1.9,3,0c0-14.8-0.2-30.4-7.2-43.9c-6.6-12.6-18.5-21.2-30.3-28.6
				c-27.5-17.3-55.6-33.7-83.8-49.8c-56.9-32.4-115.2-62.6-175.3-88.6c-59.1-25.5-120-46.9-182.7-61.7
				c-31.2-7.4-62.7-13.1-94.5-16.9c-15.6-1.9-31.2-3.2-46.9-4.2c-13.7-0.9-27.5-1.9-41-4.4c-13.1-2.4-26.3-6.2-37.8-13
				c-12.2-7.3-21.5-17.9-27.4-30.9c-6.3-13.8-8.8-28.9-10.9-43.8c-2.6-17.9-5-35.8-7.5-53.7c-1.2-8.9-2.5-17.8-3.7-26.6
				C194.5,77.9,191.6,78.7,191.8,80.6L191.8,80.6z"/>
		</g>
	</g>
	<g>
		<g>
			<path class="st0" d="M354.8,74.6c3.4,46.5,6.8,92.9,10.2,139.4c0.9,11.8,1.7,23.5,2.6,35.3c0.4,5.3,0.9,10.8-0.2,16.1
				c-1,4.7-3.4,9-6.6,12.6c-6.4,7.3-15.1,12.4-23.3,17.3c-8.3,4.9-16.9,9.3-25.6,13.2c-36.2,16.4-75,25.7-112.7,38.1
				c-18.6,6.1-37.2,13-54.7,21.9c-17.5,8.9-33.2,20.5-44.4,36.7C76,440,74.9,484,77,524.6c0.3,5.6,0.7,11.3,1,16.9
				c0.1,1.9,3.1,1.9,3,0c-2.7-42.1-5.3-87.3,15.8-125.5c4.7-8.5,10.4-16.4,17.4-23.2c7.2-7.1,15.5-12.8,24.2-17.8
				c17.4-9.8,36.3-17,55.1-23.4c37.3-12.7,75.9-21.8,112.3-37.2c9-3.8,17.8-8,26.4-12.7c8.3-4.5,16.6-9.4,24-15.3
				c7.1-5.7,13.1-13,14.4-22.3c0.8-5.2,0.3-10.5-0.1-15.8c-0.4-5.7-0.8-11.5-1.3-17.2c-3.4-46.5-6.8-92.9-10.2-139.4
				c-0.4-5.7-0.8-11.5-1.3-17.2C357.6,72.7,354.6,72.7,354.8,74.6L354.8,74.6z"/>
		</g>
	</g>
	<g>
		<g>
			<path class="st0" d="M414.3,79.8c0.9,39.7,1.8,79.5,2.7,119.2c0.8,35,4.7,73.6-14.7,104.7c-16.7,26.9-44.7,43.9-69.9,61.8
				c-24.6,17.5-49.1,37.5-64.5,64c-7.7,13.2-12.7,28-13.8,43.3c-1.3,18.3,2.6,36.5,8.7,53.6c1.5,4.1,3.1,8.2,4.8,12.2
				c0.7,1.8,3.3,0.2,2.6-1.5c-7.2-17.1-12.7-35.2-13.3-53.9c-0.5-16.3,3.2-32.3,10.6-46.8c14.1-27.5,38.6-48.3,63.2-66.1
				c24.7-17.8,51.9-33.9,70.1-59c9.7-13.4,15.4-28.7,17.9-45c2.7-17.7,2-35.7,1.6-53.6c-0.9-39.4-1.8-78.9-2.7-118.3
				c-0.1-4.9-0.2-9.7-0.3-14.6C417.2,77.9,414.2,77.9,414.3,79.8L414.3,79.8z"/>
		</g>
	</g>
	<g>
		<g>
			<path class="st0" d="M458.2,81.1c4.7,58.7,9.4,117.3,13.1,176c3.7,58.4,6.5,116.9,7.5,175.4c0.5,32.8,0.5,65.7-0.2,98.5
				c0,1.9,3,1.9,3,0c1.3-58.8,0.4-117.6-2-176.4c-2.4-58.5-6.2-116.9-10.6-175.3c-2.4-32.8-5.1-65.5-7.7-98.3
				C461.1,79.2,458.1,79.2,458.2,81.1L458.2,81.1z"/>
		</g>
	</g>
	<g>
		<g>
			<path class="st0" d="M488,71.2c8.4,41.6,16.9,83.1,25.3,124.7c4.2,20.7,8.4,41.4,12.6,62.1c3.4,17,5.3,36.3,18.3,49.1
				c10.4,10.2,24.8,15.1,38.5,19.1c15.1,4.4,30.7,7.6,45,14.6c28.9,14.1,50,40.2,62.1,69.5c14.8,35.9,15.9,75.4,18.6,113.6
				c0.4,5,0.7,10,1.2,15c0.2,1.9,3.2,1.9,3,0c-3.5-39.4-3.2-80-15.7-118c-9.6-29.4-27.5-56.6-53.3-74.3c-13.2-9-27.9-14.4-43.2-18.6
				c-14.7-4.1-30.1-7.3-43.4-15c-6.3-3.6-12-8.3-16-14.3c-5.1-7.7-7.2-16.8-9.1-25.8c-4.3-20.8-8.4-41.5-12.6-62.3
				c-8.4-41.6-16.9-83.1-25.3-124.7c-1-5.2-2.1-10.4-3.1-15.5C490.5,68.5,487.6,69.3,488,71.2L488,71.2z"/>
		</g>
	</g>
	<g>
		<g>
			<path class="st0" d="M537.8,70.9c5,28.8,9.9,57.6,14.9,86.5c4,23.4,6.9,47.6,15.8,69.8c3.9,9.7,8.9,18.8,15.8,26.7
				c7.2,8.3,16.3,14.7,26.4,18.9c21.3,9,45.1,9.1,67.9,9.2c11.8,0.1,23.5,0.1,35.3,1.1c12.3,1,24.6,2.7,36.7,5.2
				c23.8,4.8,47.1,12.2,69.3,21.8c44.6,19.2,85.6,46.5,121.8,78.8c18.3,16.3,36.2,34,47.9,55.8c12.9,24,14.7,50.9,13.6,77.6
				c-0.3,6.7-0.7,13.4-1.1,20c-0.1,1.9,2.9,1.9,3,0c1.7-26.8,3.4-54.5-5-80.5c-7.5-23.3-23-42.9-40.1-59.9
				c-17.1-17-35.8-32.5-55.3-46.7c-19.7-14.3-40.6-27.2-62.4-38.1c-43.1-21.6-90.3-35.5-138.6-37.7c-23.5-1.1-47.4,0.8-70.7-3.3
				c-11.2-2-22.3-5.6-31.9-11.7c-9.5-6-17.1-14.4-22.8-24.1c-11.3-19.1-15.4-41.5-19.1-63c-4.9-28.7-9.9-57.3-14.8-86
				c-1.2-7.1-2.4-14.2-3.7-21.3C540.4,68.2,537.5,69,537.8,70.9L537.8,70.9z"/>
		</g>
	</g>
	<g>
		<g>
			<path class="st0" d="M751,75.6c-1.4,35.6-2.7,71.2-4.1,106.8c-0.7,17.8-1.4,35.6-2,53.4c-0.3,9.1-0.7,18.2-1,27.3
				c-0.3,8,0.4,16.9-2.1,24.6c-2.6,8-10.2,12.1-17.3,15.5c-7.2,3.5-14.7,6.5-22.4,9c-15.3,5-31,8.3-46.9,10.9
				c-34.5,5.7-69.2,10-103.9,13.6c-69.8,7.2-139.7,10.2-209.9,10.6c-32.9,0.2-66.3,1-98.1,10.3c-24.2,7.1-46.7,19.1-66.4,34.8
				c-39.6,31.5-68,77.7-76,127.9c-0.9,6-1.6,12-2,18c-0.1,1.9,2.9,1.9,3,0c3.2-51.8,28.8-100.7,67.1-135.3
				c19.2-17.3,41.7-31.1,66.2-39.6c30.9-10.8,63.9-12.6,96.3-13c34.8-0.4,69.5-0.6,104.3-2.2c35.1-1.6,70.2-4.1,105.2-7.5
				c34.6-3.4,69-7.6,103.4-12.9c15.9-2.4,31.8-5.2,47.3-9.4c7.7-2.1,15.3-4.6,22.7-7.5c6.8-2.7,13.8-5.7,19.9-9.7
				c5.6-3.7,9.6-8.7,11-15.4c1.7-7.8,1.3-16.1,1.6-24c0.7-17.8,1.4-35.6,2-53.4c1.4-35.6,2.7-71.2,4.1-106.8c0.3-8.7,0.7-17.4,1-26
				C754.1,73.6,751.1,73.6,751,75.6L751,75.6z"/>
		</g>
	</g>
	<g>
		<g>
			<path class="st0" d="M778.6,75.5c0.3,30.4,0.6,60.8,1,91.2c0.2,15.2,0.3,30.4,0.5,45.6c0.2,14.4,0.5,28.9-0.1,43.3
				c-1.1,26.4-5.9,53.4-21,75.6c-6.9,10.1-15.8,18.8-26.5,24.8c-11.8,6.6-25.1,10-38.2,13c-29.1,6.6-58.6,11.2-88.3,13.9
				c-29.8,2.6-59.7,2.7-89.6,2.6c-54-0.1-110.4,1.2-159.6,26.2c-21.7,11-40.8,26.5-54.7,46.5c-13.1,19-21.5,41.7-21.4,64.9
				c0,5.6,0.6,11.2,1.6,16.7c0.3,1.9,3.2,1.1,2.9-0.8c-4.3-23.7,1.4-48,13-68.8c12-21.4,29.9-38.6,51.1-51
				c47.8-28,104.9-30.7,158.9-30.8c29.8-0.1,59.5,0.3,89.2-1.9c29.2-2.2,58.2-6.3,86.9-12.3c13.5-2.8,27.2-5.7,40-11
				c11.3-4.7,21.4-11.4,29.6-20.5c16.5-18.2,24.4-42.2,27.5-66.2c1.9-14.5,2.1-29.2,2-43.8c-0.1-14.7-0.3-29.5-0.4-44.2
				c-0.3-30.4-0.6-60.8-1-91.2c-0.1-7.3-0.2-14.5-0.2-21.8C781.6,73.6,778.6,73.6,778.6,75.5L778.6,75.5z"/>
		</g>
	</g>
	<g>
		<g>
			<path class="st0" d="M815.7,75.5c0.8,49.4,1.7,98.8,2.5,148.2c0.7,41.7,0.3,87-24.4,122.7c-24.1,34.8-64.5,53.5-104.6,63.1
				c-22.9,5.5-46.3,8.2-69.6,11.3c-21.9,2.9-43.5,7.1-63.5,16.7c-17.7,8.5-33.8,20.7-45.7,36.4c-12.4,16.1-20.2,36-21.1,56.4
				c-0.2,5,0,10.1,0.6,15.1c0.2,1.9,3.2,1.9,3,0c-2.6-21,2.7-42.3,13.6-60.3c10.5-17.4,26.1-31.3,43.9-41.2
				c19.3-10.7,40.6-15.9,62.2-19.1c23.2-3.4,46.5-5.7,69.4-10.6c40.2-8.6,80.8-25.1,107.7-57.4c13.1-15.7,21.5-34.4,26.1-54.3
				c4.7-20.7,5.6-42.2,5.6-63.4c0-23.6-0.7-47.3-1.1-70.9c-0.4-24.8-0.8-49.6-1.2-74.3c-0.1-6.1-0.2-12.2-0.3-18.2
				C818.7,73.6,815.7,73.6,815.7,75.5L815.7,75.5z"/>
		</g>
	</g>
	<g>
		<g>
			<path class="st0" d="M833.3,74.3c2.6,34.9,5.5,69.6,5,104.6c-0.4,31.8-0.4,63.6-3.5,95.3c-3,30.2-8.8,60.7-22.1,88.2
				c-12.6,26.1-32.1,48-46.5,73c-7.6,13.2-13.4,27.2-16.8,42.1c-3.7,16.3-4.8,33-4.9,49.6c0,4.2,0,8.4,0.1,12.6c0,1.9,3,1.9,3,0
				c-0.3-17,0-34.1,2.7-51c2.5-15.7,7.4-30.8,14.7-44.9c13.4-25.8,33.2-47.6,46.9-73.2c14.1-26.3,21-55.8,24.6-85.3
				c3.9-31.4,4.2-63.1,4.6-94.7c0.2-17,0.3-34-0.4-51c-0.8-17.4-2.1-34.8-3.5-52.1c-0.3-4.4-0.7-8.8-1-13.2
				C836.2,72.4,833.2,72.4,833.3,74.3L833.3,74.3z"/>
		</g>
	</g>
	<g>
		<g>
			<path class="st0" d="M856,71.6c-2.3,37.2,0.4,74.7,7.9,111.3c3.7,18.4,8.7,36.6,14.7,54.3c5.6,16.3,11.9,32.5,20.9,47.2
				c8.8,14.4,20.2,26.7,33.4,37.2c13.4,10.6,27.9,19.6,42.4,28.5c14.5,9,29.1,17.9,42.5,28.5c12.2,9.7,23.8,20.9,31.6,34.6
				c4.1,7.2,6.9,15,8.4,23.2c1.7,9.6,2,19.4,2.5,29.1c1.1,19.8,2.2,39.5,3.3,59.3c0.3,5,0.6,10,0.8,14.9c0.1,1.9,3.1,1.9,3,0
				c-1.1-19.9-2.2-39.8-3.3-59.7c-0.5-9.8-1-19.6-1.7-29.4c-0.7-9.1-1.8-18.2-4.9-26.8c-10.7-29.7-39-49.8-64.5-66.1
				c-28.5-18.1-60.1-34.3-81.5-61.2c-11-13.8-18.8-29.8-25-46.2c-6.6-17.3-12.1-35.1-16.4-53.1c-8.8-36.5-12.8-74.1-11.7-111.6
				c0.1-4.7,0.3-9.3,0.6-14C859.1,69.7,856.1,69.7,856,71.6L856,71.6z"/>
		</g>
	</g>
	<g>
		<g>
			<path class="st0" d="M1014.8,75.3c0.9,34.1-7.8,67.7-16.4,100.4c-7.2,27.6-15.4,55.1-26,81.6c-10.5,26.3-23.5,51.7-40.4,74.5
				c-17.2,23.2-38.5,43-63.3,58c-51,30.9-111.8,41.2-170.5,44.8c-69,4.1-138.7-0.2-206.9,12.4c-33.1,6.1-65.8,16.3-97.4,27.9
				c-27.2,10-54.9,24.6-69.2,51c-3.1,5.8-5.4,12-6.8,18.5c-0.4,1.9,2.5,2.7,2.9,0.8c6.5-30.6,33.3-50.3,60.5-62
				c15.4-6.7,31.6-11.8,47.5-16.9c16.5-5.2,33.2-10,50.2-13.7c68.6-15,139.3-11,209-14.4c58.5-2.8,118.8-11.4,171.1-39.4
				c25-13.4,47.3-31.2,65.6-52.9c17.9-21.2,32-45.4,43.4-70.7c11.7-26,20.7-53.1,28.4-80.6c8.6-30.7,17.3-62.2,20.5-94
				c0.8-8.4,1.2-16.9,1-25.3C1017.7,73.4,1014.7,73.4,1014.8,75.3L1014.8,75.3z"/>
		</g>
	</g>
	<g>
		<g>
			<path class="st0" d="M1062.9,74.4c2.2,59.6,4.5,120.3-9.2,178.8c-6,25.7-15,50.8-27.9,73.9c-12.8,22.8-29.5,43-49.6,59.8
				c-41.1,34.3-92.6,53.2-144.3,64c-29.3,6.1-59,9.9-88.7,13.1c-30.5,3.3-60.9,6.4-91.4,9.6c-15.1,1.6-30.2,3.1-45.3,4.8
				c-13.4,1.5-26.9,3.3-39.9,7.3c-22.4,6.9-44,21.9-51.1,45.4c-1.6,5.3-2.2,10.9-1.9,16.4c0.1,1.9,3.1,1.9,3,0
				c-1.5-25.3,18.5-45.8,40.4-55.1c13.1-5.6,27.3-8.2,41.4-10c14.7-1.9,29.5-3.2,44.2-4.8c30.6-3.2,61.2-6.4,91.8-9.7
				c29.5-3.2,59-6.6,88.1-12.2c52-9.9,103.9-27.2,146.5-59.4c20.2-15.3,37.7-33.6,51.6-54.9c14.2-21.8,24.5-46,31.7-70.9
				c16.3-56.3,16.3-115.5,14.4-173.6c-0.2-7.5-0.5-15.1-0.8-22.6C1065.8,72.5,1062.8,72.4,1062.9,74.4L1062.9,74.4z"/>
		</g>
	</g>
	<g>
		<g>
			<path class="st0" d="M1114.1,76.9c1.9,61,3.6,122.1,5.1,183.1c1.5,60.7,2.8,121.5,4,182.2c0.7,34.3,1.3,68.5,1.8,102.8
				c0,1.9,3,1.9,3,0c-1-61-2.1-122.1-3.4-183.1c-1.3-60.7-2.8-121.5-4.5-182.2c-0.9-34.3-1.9-68.5-3-102.8
				C1117,75,1114,74.9,1114.1,76.9L1114.1,76.9z"/>
		</g>
	</g>
</g>
<g id="things">
	<g>
		<path class="st1" d="M132.7,580h-107c-3.9,0-7-3.2-7-7v-33c0-3.9,3.1-7,7-7h107c3.9,0,7,3.1,7,7v33
			C139.7,576.9,136.5,580,132.7,580z"/>
		<g>
			<path class="st2" d="M39.2,565.4l-0.1-1.3c-1.2,1-2.6,1.5-4,1.5c-3.3,0-6.9-2.4-6.9-9c0-6.6,3.6-9,6.9-9c2.4,0,4.9,1.3,6,4.7
				l-2.2,0.5c-0.8-2.4-2.3-3.1-3.8-3.1c-2,0-4.5,1.2-4.5,6.8c0,5.7,2.5,6.8,4.6,6.8c1.5,0,3.1-0.6,3.9-3v-1.6h-3.8v-2.2h6.1v8.8
				H39.2z"/>
			<path class="st2" d="M44.1,565.4v-17.8H55v2.2h-8.5v5.5h5.3v2.2h-5.3v5.7H55v2.2H44.1z"/>
			<path class="st2" d="M66.5,565.4l-5.1-7.7h-1.9v7.7h-2.3v-17.8H63c3.6,0,5.6,2,5.6,5.1c0,2.8-1.6,4.6-4.5,4.9l5,7.7H66.5z
				 M62.9,555.6c2.1,0,3.4-0.9,3.4-2.8s-1.3-2.9-3.4-2.9h-3.3v5.7H62.9z"/>
			<path class="st2" d="M82.7,565.4v-13.8l-4.1,7.5h-1.2l-4.1-7.5v13.8h-2.3v-17.8h2.5l4.5,8.1l4.5-8.1H85v17.8H82.7z"/>
			<path class="st2" d="M98.4,565.4l-1.5-4.5h-6.5l-1.5,4.5h-2.4l5.8-17.8h2.5l5.8,17.8H98.4z M93.6,550.9l-2.5,7.8h5.1L93.6,550.9z
				"/>
			<path class="st2" d="M113.1,565.4l-8.5-13.7v13.7h-2.3v-17.8h2.4l8.5,13.7v-13.7h2.3v17.8H113.1z"/>
			<path class="st2" d="M122.5,565.4v-6.9l-5.4-10.9h2.4l4.1,8.1l4.1-8.1h2.4l-5.4,10.9v6.9H122.5z"/>
		</g>
	</g>
	<g>
		<path class="st1" d="M607.1,81.5H327.4c-5.5,0-10-4.5-10-10V29.2c0-5.5,4.5-10,10-10h279.7c5.5,0,10,4.5,10,10v42.3
			C617.1,77,612.6,81.5,607.1,81.5z"/>
		<g>
			<g>
				<path class="st2" d="M339.7,62.8V41h-7.3v-3.1h17.9V41h-7.3v21.8H339.7z"/>
				<path class="st2" d="M365.5,62.8l-7.1-10.7h-2.6v10.7h-3.2V37.9h8.1c5,0,7.8,2.8,7.8,7.2c0,3.9-2.2,6.4-6.4,6.9l7,10.8H365.5z
					 M360.4,49c3,0,4.8-1.3,4.8-3.9s-1.8-4.1-4.8-4.1h-4.7v8H360.4z"/>
				<path class="st2" d="M386.6,62.8l-2.1-6.4h-9.1l-2.1,6.4H370l8.2-24.9h3.5l8.2,24.9H386.6z M380,42.4l-3.6,10.9h7.1L380,42.4z"
					/>
				<path class="st2" d="M407.3,62.8l-12-19.3v19.3h-3.2V37.9h3.4l12,19.2V37.9h3.2v24.9H407.3z"/>
				<path class="st2" d="M419.2,50.7c-2.8-1.1-4.7-2.8-4.7-6.1c0-4.4,3.4-7,7.7-7c4.3,0,7.2,2.6,7.2,7.1l-2.9,0.6
					c-0.3-3.2-2-4.6-4.4-4.6c-2.2,0-4.3,1.2-4.3,3.6c0,2.3,2,3.1,3.7,3.8l3.6,1.4c2.9,1.2,5.1,2.7,5.1,6.4c0,4.6-3.6,7.1-8.1,7.1
					c-4.9,0-8.4-2.9-8.4-7.6l2.9-0.6c0.4,3.2,2.1,5.2,5.5,5.2c2.4,0,4.9-1.1,4.9-3.7c0-2.5-2.1-3.3-4.3-4.1L419.2,50.7z"/>
				<path class="st2" d="M433.5,62.8V37.9h8.1c5,0,7.8,3,7.8,7.5c0,4.5-2.8,7.4-7.8,7.4h-4.9v10H433.5z M441.3,49.7
					c3,0,4.8-1.4,4.8-4.3s-1.8-4.4-4.8-4.4h-4.7v8.7H441.3z"/>
				<path class="st2" d="M452.4,50.3c0-9.3,5-12.7,9.7-12.7c4.7,0,9.7,3.4,9.7,12.7c0,9.3-5,12.7-9.7,12.7
					C457.4,63,452.4,59.7,452.4,50.3z M468.6,50.3c0-7.9-3.5-9.6-6.4-9.6c-2.9,0-6.4,1.7-6.4,9.6c0,7.9,3.5,9.6,6.4,9.6
					C465.1,59.9,468.6,58.3,468.6,50.3z"/>
				<path class="st2" d="M488.7,62.8l-7.1-10.7h-2.6v10.7h-3.2V37.9h8.1c5,0,7.8,2.8,7.8,7.2c0,3.9-2.2,6.4-6.4,6.9l7,10.8H488.7z
					 M483.6,49c3,0,4.8-1.3,4.8-3.9s-1.8-4.1-4.8-4.1h-4.7v8H483.6z"/>
				<path class="st2" d="M500.3,62.8V41H493v-3.1h17.9V41h-7.3v21.8H500.3z"/>
				<path class="st2" d="M525.2,62.8l-2.1-6.4H514l-2.1,6.4h-3.3l8.2-24.9h3.5l8.2,24.9H525.2z M518.6,42.4L515,53.4h7.1L518.6,42.4
					z"/>
				<path class="st2" d="M533.6,62.8V41h-7.3v-3.1h17.9V41h-7.3v21.8H533.6z"/>
				<path class="st2" d="M545.9,62.8v-2.5h4.7V40.4h-4.7v-2.5h12.6v2.5h-4.7v19.9h4.7v2.5H545.9z"/>
				<path class="st2" d="M560.2,50.3c0-9.3,5-12.7,9.7-12.7c4.7,0,9.7,3.4,9.7,12.7c0,9.3-5,12.7-9.7,12.7
					C565.2,63,560.2,59.7,560.2,50.3z M576.4,50.3c0-7.9-3.5-9.6-6.4-9.6c-2.9,0-6.4,1.7-6.4,9.6c0,7.9,3.5,9.6,6.4,9.6
					C572.9,59.9,576.4,58.3,576.4,50.3z"/>
				<path class="st2" d="M598.7,62.8l-12-19.3v19.3h-3.2V37.9h3.4l12,19.2V37.9h3.2v24.9H598.7z"/>
			</g>
		</g>
	</g>
	<g>
		<path class="st1" d="M858.6,81.5H739c-5.5,0-10-4.5-10-10V29.2c0-5.5,4.5-10,10-10h119.6c5.5,0,10,4.5,10,10v42.3
			C868.6,77,864.1,81.5,858.6,81.5z"/>
		<g>
			<g>
				<path class="st2" d="M760.5,62.8V43.5l-5.8,10.5H753l-5.8-10.5v19.3H744V37.9h3.5l6.3,11.4l6.3-11.4h3.5v24.9H760.5z"/>
				<path class="st2" d="M767.9,62.8V37.9h15.2V41h-12v7.7h7.4v3.1h-7.4v7.9h12v3.1H767.9z"/>
				<path class="st2" d="M792.1,62.8V41h-7.3v-3.1h17.9V41h-7.3v21.8H792.1z"/>
				<path class="st2" d="M817,62.8l-2.1-6.4h-9.1l-2.1,6.4h-3.3l8.2-24.9h3.5l8.2,24.9H817z M810.4,42.4l-3.6,10.9h7.1L810.4,42.4z"
					/>
				<path class="st2" d="M822.5,62.8V37.9h3.2v21.8h9.4v3.1H822.5z"/>
				<path class="st2" d="M842.5,50.7c-2.8-1.1-4.7-2.8-4.7-6.1c0-4.4,3.4-7,7.7-7c4.3,0,7.2,2.6,7.2,7.1l-2.9,0.6
					c-0.3-3.2-2-4.6-4.4-4.6c-2.2,0-4.3,1.2-4.3,3.6c0,2.3,2,3.1,3.7,3.8l3.6,1.4c2.9,1.2,5.1,2.7,5.1,6.4c0,4.6-3.6,7.1-8.1,7.1
					c-4.9,0-8.4-2.9-8.4-7.6l2.9-0.6c0.4,3.2,2.1,5.2,5.5,5.2c2.4,0,4.9-1.1,4.9-3.7c0-2.5-2.1-3.3-4.3-4.1L842.5,50.7z"/>
			</g>
		</g>
	</g>
	<g>
		<path class="st1" d="M1171.6,81.5H990.5c-5.5,0-10-4.5-10-10V29.2c0-5.5,4.5-10,10-10h181.1c5.5,0,10,4.5,10,10v42.3
			C1181.6,77,1177.1,81.5,1171.6,81.5z"/>
		<g>
			<g>
				<path class="st2" d="M1013.7,56.4c-1.6,4.8-5.1,6.6-8.5,6.6c-4.6,0-9.7-3.4-9.7-12.7c0-9.3,5-12.7,9.7-12.7
					c3.4,0,6.9,1.8,8.5,6.6l-3.1,0.8c-1.1-3.4-3.4-4.3-5.4-4.3c-2.8,0-6.4,1.7-6.4,9.6c0,7.9,3.5,9.6,6.4,9.6c2,0,4.2-0.8,5.4-4.2
					L1013.7,56.4z"/>
				<path class="st2" d="M1030.7,62.8V51.9h-10.3v10.9h-3.2V37.9h3.2v10.9h10.3V37.9h3.2v24.9H1030.7z"/>
				<path class="st2" d="M1038.1,62.8V37.9h15.2V41h-12v7.7h7.4v3.1h-7.4v7.9h12v3.1H1038.1z"/>
				<path class="st2" d="M1072.9,62.8V43.5l-5.8,10.5h-1.7l-5.8-10.5v19.3h-3.2V37.9h3.5l6.3,11.4l6.3-11.4h3.5v24.9H1072.9z"/>
				<path class="st2" d="M1079.5,62.8v-2.5h4.7V40.4h-4.7v-2.5h12.6v2.5h-4.7v19.9h4.7v2.5H1079.5z"/>
				<path class="st2" d="M1112,56.4c-1.6,4.8-5.1,6.6-8.5,6.6c-4.6,0-9.7-3.4-9.7-12.7c0-9.3,5-12.7,9.7-12.7c3.4,0,6.9,1.8,8.5,6.6
					l-3.1,0.8c-1.1-3.4-3.4-4.3-5.4-4.3c-2.8,0-6.4,1.7-6.4,9.6c0,7.9,3.5,9.6,6.4,9.6c2,0,4.2-0.8,5.4-4.2L1112,56.4z"/>
				<path class="st2" d="M1130,62.8l-2.1-6.4h-9.1l-2.1,6.4h-3.3l8.2-24.9h3.5l8.2,24.9H1130z M1123.4,42.4l-3.6,10.9h7.1
					L1123.4,42.4z"/>
				<path class="st2" d="M1135.5,62.8V37.9h3.2v21.8h9.4v3.1H1135.5z"/>
				<path class="st2" d="M1155.5,50.7c-2.8-1.1-4.7-2.8-4.7-6.1c0-4.4,3.4-7,7.7-7c4.3,0,7.2,2.6,7.2,7.1l-2.9,0.6
					c-0.3-3.2-2-4.6-4.4-4.6c-2.2,0-4.3,1.2-4.3,3.6c0,2.3,2,3.1,3.7,3.8l3.6,1.4c2.9,1.2,5.1,2.7,5.1,6.4c0,4.6-3.6,7.1-8.1,7.1
					c-4.9,0-8.4-2.9-8.4-7.6l2.9-0.6c0.4,3.2,2.1,5.2,5.5,5.2c2.4,0,4.9-1.1,4.9-3.7c0-2.5-2.1-3.3-4.3-4.1L1155.5,50.7z"/>
			</g>
		</g>
	</g>
	<g>
		<path class="st1" d="M338.8,580H230.2c-3.9,0-7-3.2-7-7v-33c0-3.9,3.1-7,7-7h108.6c3.8,0,7,3.1,7,7v33
			C345.8,576.9,342.7,580,338.8,580z"/>
		<g>
			<g>
				<path class="st2" d="M233.2,565.4v-17.8h5.4c3.3,0,6.9,2.4,6.9,8.9c0,6.4-3.4,8.9-6.6,8.9H233.2z M238.6,563.2
					c2,0,4.5-1.2,4.5-6.6c0-5.6-2.6-6.8-4.8-6.8h-2.8v13.4H238.6z"/>
				<path class="st2" d="M248.2,565.4v-17.8H259v2.2h-8.5v5.5h5.3v2.2h-5.3v5.7h8.5v2.2H248.2z"/>
				<path class="st2" d="M272.1,565.4l-8.5-13.7v13.7h-2.3v-17.8h2.4l8.5,13.7v-13.7h2.3v17.8H272.1z"/>
				<path class="st2" d="M289.3,565.4v-13.8l-4.1,7.5H284l-4.1-7.5v13.8h-2.3v-17.8h2.5l4.5,8.1l4.5-8.1h2.5v17.8H289.3z"/>
				<path class="st2" d="M305,565.4l-1.5-4.5H297l-1.5,4.5h-2.4l5.8-17.8h2.5l5.8,17.8H305z M300.3,550.9l-2.5,7.8h5.1L300.3,550.9z
					"/>
				<path class="st2" d="M318.2,565.4l-5.1-7.7h-1.9v7.7h-2.3v-17.8h5.8c3.6,0,5.6,2,5.6,5.1c0,2.8-1.6,4.6-4.5,4.9l5,7.7H318.2z
					 M314.5,555.6c2.1,0,3.4-0.9,3.4-2.8s-1.3-2.9-3.4-2.9h-3.3v5.7H314.5z"/>
				<path class="st2" d="M333,565.4l-6.4-8.4l-1.7,1.9v6.5h-2.3v-17.8h2.3v8.1l7.2-8.1h2.9l-6.9,7.7l7.7,10.1H333z"/>
			</g>
		</g>
	</g>
	<g>
		<path class="st1" d="M532.8,580h-96.5c-3.9,0-7-3.2-7-7v-33c0-3.9,3.1-7,7-7h96.5c3.8,0,7,3.1,7,7v33
			C539.8,576.9,536.7,580,532.8,580z"/>
		<g>
			<g>
				<path class="st2" d="M450.2,565.4l-8.5-13.7v13.7h-2.3v-17.8h2.4l8.5,13.7v-13.7h2.3v17.8H450.2z"/>
				<path class="st2" d="M455.4,556.5c0-6.6,3.6-9,6.9-9c3.4,0,6.9,2.4,6.9,9s-3.6,9-6.9,9C458.9,565.6,455.4,563.2,455.4,556.5z
					 M466.9,556.5c0-5.6-2.5-6.8-4.6-6.8c-2.1,0-4.6,1.2-4.6,6.8c0,5.7,2.5,6.8,4.6,6.8C464.4,563.4,466.9,562.2,466.9,556.5z"/>
				<path class="st2" d="M481.3,565.4l-5.1-7.7h-1.9v7.7H472v-17.8h5.8c3.6,0,5.6,2,5.6,5.1c0,2.8-1.6,4.6-4.5,4.9l5,7.7H481.3z
					 M477.6,555.6c2.1,0,3.4-0.9,3.4-2.8s-1.3-2.9-3.4-2.9h-3.3v5.7H477.6z"/>
				<path class="st2" d="M497.3,565.4l-3-11.8l-3,11.8h-2.3l-4.3-17.8h2.4l3.1,13.7l3-11.2h2.3l2.9,11.2l3.1-13.7h2.4l-4.3,17.8
					H497.3z"/>
				<path class="st2" d="M515.8,565.4l-1.5-4.5h-6.5l-1.5,4.5H504l5.8-17.8h2.5l5.8,17.8H515.8z M511.1,550.9l-2.5,7.8h5.1
					L511.1,550.9z"/>
				<path class="st2" d="M522.1,565.4v-6.9l-5.4-10.9h2.4l4.1,8.1l4.1-8.1h2.4l-5.4,10.9v6.9H522.1z"/>
			</g>
		</g>
	</g>
	<g>
		<path class="st1" d="M828.5,580H630.3c-3.8,0-7-3.2-7-7v-33c0-3.9,3.2-7,7-7h198.2c3.8,0,7,3.1,7,7v33
			C835.5,576.9,832.4,580,828.5,580z"/>
		<g>
			<g>
				<path class="st2" d="M642.9,547.6h2.3V560c0,3.6-2.3,5.6-5.9,5.6s-5.9-2-5.9-5.6v-12.3h2.3v12.2c0,2.2,1.2,3.6,3.6,3.6
					s3.6-1.3,3.6-3.6V547.6z"/>
				<path class="st2" d="M659,565.4l-8.5-13.7v13.7h-2.3v-17.8h2.4l8.5,13.7v-13.7h2.3v17.8H659z"/>
				<path class="st2" d="M663.9,565.4v-1.8h3.3v-14.2h-3.3v-1.8h9v1.8h-3.3v14.2h3.3v1.8H663.9z"/>
				<path class="st2" d="M679.3,565.4v-15.6h-5.2v-2.2h12.7v2.2h-5.2v15.6H679.3z"/>
				<path class="st2" d="M688.5,565.4v-17.8h10.8v2.2h-8.5v5.5h5.3v2.2h-5.3v5.7h8.5v2.2H688.5z"/>
				<path class="st2" d="M701.6,565.4v-17.8h5.4c3.3,0,6.9,2.4,6.9,8.9c0,6.4-3.4,8.9-6.6,8.9H701.6z M707,563.2
					c2,0,4.5-1.2,4.5-6.6c0-5.6-2.6-6.8-4.8-6.8h-2.8v13.4H707z"/>
				<path class="st2" d="M733,565.4l-6.4-8.4l-1.7,1.9v6.5h-2.3v-17.8h2.3v8.1l7.2-8.1h2.9l-6.9,7.7l7.7,10.1H733z"/>
				<path class="st2" d="M736.7,565.4v-1.8h3.3v-14.2h-3.3v-1.8h9v1.8h-3.3v14.2h3.3v1.8H736.7z"/>
				<path class="st2" d="M758.9,565.4l-8.5-13.7v13.7H748v-17.8h2.4l8.5,13.7v-13.7h2.3v17.8H758.9z"/>
				<path class="st2" d="M775.1,565.4l-0.1-1.3c-1.2,1-2.6,1.5-4,1.5c-3.3,0-6.9-2.4-6.9-9c0-6.6,3.6-9,6.9-9c2.4,0,4.9,1.3,6,4.7
					l-2.2,0.5c-0.8-2.4-2.3-3.1-3.8-3.1c-2,0-4.5,1.2-4.5,6.8c0,5.7,2.5,6.8,4.6,6.8c1.5,0,3.1-0.6,3.9-3v-1.6H771v-2.2h6.1v8.8
					H775.1z"/>
				<path class="st2" d="M780,565.4v-17.8h5.4c3.3,0,6.9,2.4,6.9,8.9c0,6.4-3.4,8.9-6.6,8.9H780z M785.4,563.2c2,0,4.5-1.2,4.5-6.6
					c0-5.6-2.6-6.8-4.8-6.8h-2.8v13.4H785.4z"/>
				<path class="st2" d="M794.8,556.5c0-6.6,3.6-9,6.9-9c3.4,0,6.9,2.4,6.9,9s-3.6,9-6.9,9C798.4,565.6,794.8,563.2,794.8,556.5z
					 M806.4,556.5c0-5.6-2.5-6.8-4.6-6.8c-2.1,0-4.6,1.2-4.6,6.8c0,5.7,2.5,6.8,4.6,6.8C803.9,563.4,806.4,562.2,806.4,556.5z"/>
				<path class="st2" d="M823.2,565.4v-13.8l-4.1,7.5h-1.2l-4.1-7.5v13.8h-2.3v-17.8h2.5l4.5,8.1l4.5-8.1h2.5v17.8H823.2z"/>
			</g>
		</g>
	</g>
	<g>
		<path class="st1" d="M1175.4,580H926c-3.8,0-7-3.2-7-7v-33c0-3.9,3.2-7,7-7h249.3c3.8,0,7,3.1,7,7v33
			C1182.4,576.9,1179.2,580,1175.4,580z"/>
		<g>
			<g>
				<path class="st2" d="M929,565.4v-17.8h5.3c3.6,0,5.6,2,5.6,5c0,1.7-0.6,2.9-1.8,3.7c1.5,0.8,2.3,2.2,2.3,4.1c0,3-2,5-5.6,5H929z
					 M934.2,555.4c2.1,0,3.4-0.9,3.4-2.7c0-1.8-1.3-2.8-3.4-2.8h-2.8v5.5H934.2z M934.7,563.2c2.1,0,3.4-1,3.4-2.8
					c0-1.9-1.3-2.8-3.4-2.8h-3.3v5.7H934.7z"/>
				<path class="st2" d="M942.9,565.4v-17.8h10.8v2.2h-8.5v5.5h5.3v2.2h-5.3v5.7h8.5v2.2H942.9z"/>
				<path class="st2" d="M956,565.4v-17.8h2.3v15.6h6.7v2.2H956z"/>
				<path class="st2" d="M977.2,565.4l-0.1-1.3c-1.2,1-2.6,1.5-4,1.5c-3.3,0-6.9-2.4-6.9-9c0-6.6,3.6-9,6.9-9c2.4,0,4.9,1.3,6,4.7
					l-2.2,0.5c-0.8-2.4-2.3-3.1-3.8-3.1c-2,0-4.5,1.2-4.5,6.8c0,5.7,2.5,6.8,4.6,6.8c1.5,0,3.1-0.6,3.9-3v-1.6h-3.8v-2.2h6.1v8.8
					H977.2z"/>
				<path class="st2" d="M981.5,565.4v-1.8h3.3v-14.2h-3.3v-1.8h9v1.8h-3.3v14.2h3.3v1.8H981.5z"/>
				<path class="st2" d="M1002.5,547.6h2.3V560c0,3.6-2.3,5.6-5.9,5.6s-5.9-2-5.9-5.6v-12.3h2.3v12.2c0,2.2,1.2,3.6,3.6,3.6
					s3.6-1.3,3.6-3.6V547.6z"/>
				<path class="st2" d="M1019.5,565.4v-13.8l-4.1,7.5h-1.2l-4.1-7.5v13.8h-2.3v-17.8h2.5l4.5,8.1l4.5-8.1h2.5v17.8H1019.5z"/>
				<path class="st2" d="M1030.8,565.4v-17.8h2.3v15.6h6.7v2.2H1030.8z"/>
				<path class="st2" d="M1051.2,547.6h2.3V560c0,3.6-2.3,5.6-5.9,5.6s-5.9-2-5.9-5.6v-12.3h2.3v12.2c0,2.2,1.2,3.6,3.6,3.6
					s3.6-1.3,3.6-3.6V547.6z"/>
				<path class="st2" d="M1066.3,565.4l-4.3-7.1l-4.3,7.1h-2.7l5.6-9.3l-5.1-8.5h2.6l3.8,6.3l3.8-6.3h2.6l-5.1,8.5l5.6,9.3H1066.3z"
					/>
				<path class="st2" d="M1070.5,565.4v-17.8h10.8v2.2h-8.5v5.5h5.3v2.2h-5.3v5.7h8.5v2.2H1070.5z"/>
				<path class="st2" d="M1095.3,565.4v-13.8l-4.1,7.5h-1.2l-4.1-7.5v13.8h-2.3v-17.8h2.5l4.5,8.1l4.5-8.1h2.5v17.8H1095.3z"/>
				<path class="st2" d="M1100.6,565.4v-17.8h5.3c3.6,0,5.6,2,5.6,5c0,1.7-0.6,2.9-1.8,3.7c1.5,0.8,2.3,2.2,2.3,4.1c0,3-2,5-5.6,5
					H1100.6z M1105.8,555.4c2.1,0,3.4-0.9,3.4-2.7c0-1.8-1.3-2.8-3.4-2.8h-2.8v5.5H1105.8z M1106.3,563.2c2.1,0,3.4-1,3.4-2.8
					c0-1.9-1.3-2.8-3.4-2.8h-3.3v5.7H1106.3z"/>
				<path class="st2" d="M1114.3,556.5c0-6.6,3.6-9,6.9-9c3.4,0,6.9,2.4,6.9,9s-3.6,9-6.9,9C1117.9,565.6,1114.3,563.2,1114.3,556.5
					z M1125.8,556.5c0-5.6-2.5-6.8-4.6-6.8c-2.1,0-4.6,1.2-4.6,6.8c0,5.7,2.5,6.8,4.6,6.8C1123.3,563.4,1125.8,562.2,1125.8,556.5z"
					/>
				<path class="st2" d="M1140.5,547.6h2.3V560c0,3.6-2.3,5.6-5.9,5.6s-5.9-2-5.9-5.6v-12.3h2.3v12.2c0,2.2,1.2,3.6,3.6,3.6
					c2.4,0,3.6-1.3,3.6-3.6V547.6z"/>
				<path class="st2" d="M1155.1,565.4l-5.1-7.7h-1.9v7.7h-2.3v-17.8h5.8c3.6,0,5.6,2,5.6,5.1c0,2.8-1.6,4.6-4.5,4.9l5,7.7H1155.1z
					 M1151.4,555.6c2.1,0,3.4-0.9,3.4-2.8s-1.3-2.9-3.4-2.9h-3.3v5.7H1151.4z"/>
				<path class="st2" d="M1170.3,565.4l-0.1-1.3c-1.2,1-2.6,1.5-4,1.5c-3.3,0-6.9-2.4-6.9-9c0-6.6,3.6-9,6.9-9c2.4,0,4.9,1.3,6,4.7
					l-2.2,0.5c-0.8-2.4-2.3-3.1-3.8-3.1c-2,0-4.5,1.2-4.5,6.8c0,5.7,2.5,6.8,4.6,6.8c1.5,0,3.1-0.6,3.9-3v-1.6h-3.8v-2.2h6.1v8.8
					H1170.3z"/>
			</g>
		</g>
	</g>
	<g>
		<path class="st1" d="M195.5,81.5h-167c-5.5,0-10-4.5-10-10V29.2c0-5.5,4.5-10,10-10h167c5.5,0,10,4.5,10,10v42.3
			C205.5,77,201,81.5,195.5,81.5z"/>
		<g>
			<path class="st2" d="M50.1,63.3V43.9l-5.8,10.5h-1.7l-5.8-10.5v19.3h-3.2V38.3h3.5l6.3,11.4l6.3-11.4h3.5v24.9H50.1z"/>
			<path class="st2" d="M72.1,63.3L70,56.9h-9.1l-2.1,6.4h-3.3l8.2-24.9h3.5l8.2,24.9H72.1z M65.4,42.9l-3.6,10.9H69L65.4,42.9z"/>
			<path class="st2" d="M94.9,56.9c-1.6,4.8-5.1,6.6-8.5,6.6c-4.6,0-9.7-3.4-9.7-12.7c0-9.3,5-12.7,9.7-12.7c3.4,0,6.9,1.8,8.5,6.6
				l-3.1,0.8c-1.1-3.4-3.4-4.3-5.4-4.3c-2.8,0-6.4,1.7-6.4,9.6c0,7.9,3.5,9.6,6.4,9.6c2,0,4.2-0.8,5.4-4.2L94.9,56.9z"/>
			<path class="st2" d="M111.9,63.3V52.3h-10.3v10.9h-3.2V38.3h3.2v10.9h10.3V38.3h3.2v24.9H111.9z"/>
			<path class="st2" d="M118.5,63.3v-2.5h4.7V40.9h-4.7v-2.5h12.6v2.5h-4.7v19.9h4.7v2.5H118.5z"/>
			<path class="st2" d="M149.6,63.3l-12-19.3v19.3h-3.2V38.3h3.4l12,19.2V38.3h3.2v24.9H149.6z"/>
			<path class="st2" d="M157.2,63.3V38.3h15.2v3.1h-12v7.7h7.4v3.1h-7.4v7.9h12v3.1H157.2z"/>
			<path class="st2" d="M179.9,51.2c-2.8-1.1-4.7-2.8-4.7-6.1c0-4.4,3.4-7,7.7-7c4.3,0,7.2,2.6,7.2,7.1l-2.9,0.6
				c-0.3-3.2-2-4.6-4.4-4.6c-2.2,0-4.3,1.2-4.3,3.6c0,2.3,2,3.1,3.7,3.8l3.6,1.4c2.9,1.2,5.1,2.7,5.1,6.4c0,4.6-3.6,7.1-8.1,7.1
				c-4.9,0-8.4-2.9-8.4-7.6l2.9-0.6c0.4,3.2,2.1,5.2,5.5,5.2c2.4,0,4.9-1.1,4.9-3.7c0-2.5-2.1-3.3-4.3-4.1L179.9,51.2z"/>
		</g>
	</g>
</g>
</svg>
