<?xml version="1.0" encoding="utf-8"?>
<!-- Generator: Adobe Illustrator 24.0.1, SVG Export Plug-In . SVG Version: 6.00 Build 0)  -->
<svg version="1.1" xmlns="http://www.w3.org/2000/svg" xmlns:xlink="http://www.w3.org/1999/xlink" x="0px" y="0px"
	 viewBox="0 0 1200 600" style="enable-background:new 0 0 1200 600;" xml:space="preserve">
<style type="text/css">
	.st0{fill:#FECB00;}
	.st1{fill:#FFFFFF;stroke:#001B5D;stroke-width:3;stroke-miterlimit:10;}
	.st2{fill:#001B5D;}
</style>
<g id="lines">
	<g>
		<g>
			<path class="st0" d="M41.5,59.5c-1,31.2-1.9,62.4-2.6,93.5c-0.7,31.2-1.2,62.4-1.6,93.6c-0.4,31.3-0.6,62.7-0.6,94
				c0,31.2,0.1,62.4,0.3,93.6c0.2,28.2,0.3,57.1,9.1,84.2c1.1,3.4,2.3,6.7,3.7,9.9c0.7,1.8,3.6,1,2.9-0.8
				c-11-26.6-12.2-55.6-12.5-84c-0.4-31-0.5-62.1-0.4-93.1c0-62.1,0.7-124.1,2-186.2c0.7-34.9,1.7-69.9,2.8-104.8
				C44.5,57.5,41.5,57.5,41.5,59.5L41.5,59.5z"/>
		</g>
	</g>
	<g>
		<g>
			<path class="st0" d="M73.8,63c-2.2,46.4-2.1,92.9,0.5,139.3c1.3,23.2,3.2,46.4,5.6,69.5c2,19.1,3.9,39.1,12.9,56.4
				c8.6,16.8,23.9,27.5,40.7,35.3c8.9,4.1,18.1,7.6,27.2,11.1c10.8,4.2,21.6,8.4,32.5,12.6c21.6,8.4,43.3,16.8,64.9,25.3
				c19.9,7.8,40.3,14.9,59.5,24.4c17.3,8.5,34.1,19.4,45.8,35.1c10.8,14.4,17.7,32.8,15.4,51.1c-0.5,4.3-1.7,8.6-3.3,12.6
				c-0.7,1.8,2.2,2.6,2.9,0.8c6.5-16.6,4-35.1-3.4-51c-7.9-17-21.3-30.3-36.9-40.5c-16.5-10.8-35-18.2-53.3-25.3
				c-21.8-8.5-43.6-17-65.4-25.4c-21.8-8.5-43.5-16.9-65.3-25.4c-17.3-6.7-35.5-13.9-48.5-27.6c-13.8-14.5-18.4-34.7-20.9-53.9
				c-2.9-22.3-4.8-44.8-6.3-67.2c-3.2-46.5-3.9-93.2-2.3-139.8c0.2-5.8,0.4-11.5,0.7-17.3C76.9,61.1,73.9,61.1,73.8,63L73.8,63z"/>
		</g>
	</g>
	<g>
		<g>
			<path class="st0" d="M253.5,64c3,39.7,6,79.8,2.2,119.6c-3.3,34.4-12.2,68.2-29.9,98.2c-15.8,26.7-38.1,50-66,64
				c-7.2,3.6-14.8,6.4-22.5,8.8c-7.9,2.5-15.9,4.7-23.4,8.2c-7.1,3.3-13.5,7.9-18.3,14.1c-4.6,5.9-7.6,12.9-9.4,20.1
				c-4.2,16.3-3.4,33.5-3.3,50.2c0.1,20.8,0.5,41.5,1.3,62.3c0.2,5.2,0.4,10.4,0.6,15.6c0.1,1.9,3.1,1.9,3,0
				c-0.9-20.7-1.5-41.5-1.7-62.3c-0.1-10.4-0.2-20.8-0.2-31.1c0-8,0.2-16,1.3-23.9c2.2-15.9,8.5-31,22.9-39.5
				c7.3-4.3,15.4-6.9,23.5-9.4c7.7-2.4,15.3-4.8,22.6-8.1c28.1-12.6,51.2-34.6,67.9-60.3c18.2-28.1,28.5-60.1,33.2-93.1
				c5.5-39.3,3.5-79.1,0.6-118.5c-0.4-5-0.7-9.9-1.1-14.9C256.4,62.1,253.4,62.1,253.5,64L253.5,64z"/>
		</g>
	</g>
	<g>
		<g>
			<path class="st0" d="M303,68.5c-1.2,37.7-2.4,75.5,0.3,113.2c1.2,17.3,3,34.8,6.6,51.9c3.3,15.1,8.4,30.1,17.6,42.7
				c9.1,12.5,21.8,21.3,34.9,29.3c13.4,8.2,26.7,16.2,38.1,27.1c22.3,21.5,36.8,49.9,45.3,79.4c10.2,35.1,12.2,71.9,13.4,108.2
				c0.1,4.6,0.3,9.2,0.4,13.8c0.1,1.9,3.1,1.9,3,0c-1.1-36.6-2.1-73.6-10.4-109.5c-6.9-29.9-19.3-59.1-39.1-82.8
				c-9.8-11.8-21.4-21.5-34.3-29.7c-13.2-8.4-27.3-15.7-38.9-26.5c-24.6-22.8-29.4-58.6-32.4-90.3c-3.6-37.4-2.9-75.1-1.8-112.7
				c0.1-4.7,0.3-9.4,0.4-14.1C306.1,66.6,303.1,66.6,303,68.5L303,68.5z"/>
		</g>
	</g>
	<g>
		<g>
			<path class="st0" d="M348.6,65.5c-3.9,46.3-7.6,97.6,18.4,138.7c12.7,20.1,31.2,36,50.5,49.6c19.4,13.6,40.3,24.8,62.1,34.1
				c43.9,18.7,90.7,29.6,137.5,38c22.6,4,45.6,6.6,67.9,12.3c21.6,5.6,42.6,15.4,55.6,34.2c12.9,18.7,17.2,41.9,20.4,64
				c4,27.5,7.2,55.3,6.9,83.1c-0.1,6.8-0.4,13.6-0.9,20.4c-0.2,1.9,2.8,1.9,3,0c2.3-27.9,0.1-55.9-3.3-83.6
				c-2.9-23.2-5.5-47.2-14.6-68.9c-4.2-10-10-19.3-17.6-27c-7.6-7.6-16.8-13.4-26.7-17.7c-20.6-9-43.1-11.9-65-15.5
				c-47.2-7.7-94.5-17-139.6-33.2c-22.3-8-43.9-17.8-64.3-29.9c-20.5-12.2-40.5-26.6-56.5-44.5c-16.3-18.2-26.2-40.1-30.4-64
				c-4.3-23.9-3.5-48.3-1.8-72.4c0.4-5.9,0.9-11.7,1.4-17.6C351.7,63.6,348.7,63.6,348.6,65.5L348.6,65.5z"/>
		</g>
	</g>
	<g>
		<g>
			<path class="st0" d="M519.3,61.2c-0.7,26.1-1.3,52.1-2,78.2c-0.3,12.5-0.5,25.1-1.1,37.6c-0.6,12.1-1.7,24.3-4.9,36
				c-5.9,21.6-19.7,39.2-36.4,53.7c-17.6,15.1-37.7,27.1-58.4,37.5C395.2,315,373,324.1,351,333.3c-24.3,10.1-48.5,20.2-72.8,30.3
				c-24.1,10.1-48.3,20.1-72.4,30.2c-20.1,8.4-40.7,17-57.4,31.4c-28.8,24.8-40.1,67-28.3,103c1.4,4.3,3.1,8.5,5.1,12.5
				c0.9,1.7,3.5,0.2,2.6-1.5c-17.2-34.5-10-79.2,17-106.6c15.6-15.8,36.3-25.2,56.5-33.7c23.8-10,47.6-19.9,71.4-29.8
				c24.1-10.1,48.2-20.1,72.4-30.2c21.7-9.1,43.6-17.9,64.8-28.2c20.9-10.1,41.2-21.5,59.5-35.8c16.5-12.8,31.7-28.5,40.1-47.9
				c9.4-21.6,9.6-45.5,10.2-68.6c0.7-26.1,1.3-52.1,2-78.2c0.2-6.4,0.3-12.7,0.5-19.1C522.3,59.3,519.3,59.3,519.3,61.2L519.3,61.2z
				"/>
		</g>
	</g>
	<g>
		<g>
			<path class="st0" d="M559.1,70.3c-1.5,39.3-1.4,79.1,7.2,117.7c4.1,18.7,10.3,37.1,19.2,54c4.2,7.9,9.1,15.5,15.3,22
				c6.3,6.7,13.9,11.8,22.3,15.5c8.6,3.8,17.7,6.2,26.8,8.4c10.5,2.5,20.9,5,31.4,7.5c21.4,5.1,42.8,10.3,64.2,15.4
				c18.2,4.4,38.4,7.9,52.6,21.1c13.3,12.3,19.7,30.2,23.9,47.4c9.9,41,7.3,83.7,3.5,125.3c-0.5,5.1-1,10.2-1.4,15.3
				c-0.2,1.9,2.8,1.9,3,0c4-41.4,8-83.5,1.2-124.8c-3-18.1-7.5-36.9-17.5-52.5c-4.6-7.3-10.5-13.6-17.7-18.4
				c-7.6-5.1-16.3-8.3-25-10.8c-9.8-2.8-19.7-5-29.6-7.3c-10.6-2.6-21.3-5.1-31.9-7.7c-20.9-5-41.8-9.7-62.6-15.1
				c-9.3-2.4-18.5-5.3-26.8-10.1c-8.1-4.7-14.9-11.2-20.5-18.8c-11.2-15.2-18.3-33.7-23.5-51.7c-11.1-38.2-12.5-78.4-11.5-117.9
				c0.1-4.8,0.3-9.6,0.5-14.5C562.2,68.4,559.2,68.4,559.1,70.3L559.1,70.3z"/>
		</g>
	</g>
	<g>
		<g>
			<path class="st0" d="M110,54.2c6.5,70.3,15.7,146.4,61.9,203.2c48.7,59.7,126.7,82.9,200.3,91.9c43.5,5.3,87.4,7.2,131,10
				c44.8,2.9,89.6,5.7,134.4,8.6c44.8,2.8,89.5,5.9,134.3,8.5c22.3,1.3,44.6,2.2,67,2.1c21.6-0.1,43.3-1.5,64.9-0.6
				c19.9,0.8,39.8,3.8,58.4,11.2c15.2,6.1,29.4,14.8,41.9,25.4c25.1,21.3,43.7,50.3,51.6,82.3c2,8,3.2,16.1,3.8,24.3
				c0.1,1.9,3.1,1.9,3,0c-4.5-62.8-50.1-120.1-110.4-138.7c-40.2-12.4-83.3-6.5-124.6-6.9c-45.1-0.5-90.1-4.2-135-7.1
				c-89.2-5.7-178.5-10.8-267.7-17.1c-78.9-5.6-163.4-17.4-225.8-70.4c-58.6-49.8-75.4-126.5-83.4-199.6c-1-9-1.9-18-2.7-27
				C112.9,52.3,109.9,52.2,110,54.2L110,54.2z"/>
		</g>
	</g>
	<g>
		<g>
			<path class="st0" d="M384.9,65c-5.1,52.2,17.2,106.4,57.9,139.6c22.4,18.3,49.7,29.3,77.4,36.6c31.1,8.3,63.1,13,94.9,17.8
				c68.1,10.4,136.6,17.9,204.8,27.3c34,4.7,68.5,9,101.8,17.4c16.3,4.1,32.2,9.6,47.9,15.6c14.4,5.5,28.9,11.1,42.9,17.5
				c12.3,5.7,24.5,12.4,34.4,21.7c10.8,10.2,17.4,23.2,21.4,37.5c4.2,15.5,6.3,31.6,8.9,47.4c2.9,17.3,5.6,34.6,8.4,52
				c1.3,8.3,2.7,16.6,4,25c0.3,1.9,3.2,1.1,2.9-0.8c-5.5-34.2-10.8-68.4-16.7-102.5c-2.5-14.2-5.4-28.6-12.2-41.5
				c-6.1-11.6-15.4-21-26.2-28.4c-11-7.5-23.1-13-35.4-18.1c-15.1-6.3-30.3-12.4-45.7-17.9c-32-11.4-65-17.4-98.5-22.4
				c-67.9-10.2-136.2-17.7-204.2-27.1c-33.3-4.6-66.5-9.6-99.5-15.9c-29.7-5.7-59.5-13.2-86.2-27.8c-48.3-26.6-79.3-78.7-80.9-133.7
				c-0.2-6.4,0.1-12.9,0.7-19.3C388,63.1,385,63.1,384.9,65L384.9,65z"/>
		</g>
	</g>
	<g>
		<g>
			<path class="st0" d="M596,67.8c-0.6,44,20.1,86.9,52.9,115.8c16.4,14.4,35.8,25.3,56.8,31.2c14,3.9,28.4,5.8,42.8,7.8
				c15.1,2.1,30.3,4.3,45.4,6.4c30.3,4.3,60.5,8.6,90.8,12.8c27.4,3.9,54.8,7.7,81.9,13.4c26.6,5.6,52.9,13.1,77.7,24.3
				c12,5.4,24.3,11.5,34.7,19.7c10.6,8.4,17.6,19.4,22,32.1c4.5,13.1,7.1,27,9.4,40.6c2.5,14.9,4.4,29.8,5.7,44.8
				c2.6,29.5,3.4,59.2,3.7,88.8c0.1,7.3,0.1,14.6,0.2,21.8c0,1.9,3,1.9,3,0c-0.5-59.2-1-119.1-13.8-177.2c-2.7-12.4-6.1-25-12.8-36
				c-6.5-10.7-16.1-18.6-26.7-25c-22.9-13.8-48.5-23.1-74.2-30.1c-26.5-7.3-53.7-12-80.9-16c-29.3-4.4-58.6-8.4-88-12.5
				c-29.8-4.2-59.6-8.2-89.3-12.6c-13.6-2-27.2-4.4-40.1-9.1c-10.5-3.7-20.5-8.8-29.8-15c-37-24.4-63.2-65.8-67.8-110
				c-0.6-5.4-0.8-10.8-0.7-16.2C599.1,65.9,596.1,65.9,596,67.8L596,67.8z"/>
		</g>
	</g>
	<g>
		<g>
			<path class="st0" d="M736.9,69.4c0.8,30.4-0.3,60.9-3.3,91.2c-2.6,26.1-6,52.7-15.3,77.3c-4.4,11.8-10.3,23.1-18.2,33
				c-8.2,10.3-18.3,18.6-29.4,25.5c-11.1,6.9-23,12.5-35,17.8c-14,6.3-28.2,12.4-42.4,18.2c-27.3,11.2-55,22.1-83.4,30.2
				c-14.1,4-28.3,7.3-42.8,9.5c-15.3,2.4-30.8,3.3-46.3,4.3c-29.4,1.9-58.7,5-87.7,10.6c-28.8,5.5-57.2,13.1-85,22.6
				c-24,8.3-48.1,18.6-67,36.1c-17.1,15.9-29.3,38.8-28.6,62.6c0.2,5.8,1.1,11.5,2.9,17c0.6,1.8,3.5,1.1,2.9-0.8
				c-7.6-24,1.4-50.1,17.3-68.7c17.1-20,41.8-31.9,66-40.7c55.1-20.1,113.3-31.4,171.7-35.2c15.3-1,30.6-1.8,45.8-3.7
				c14.2-1.8,28.1-4.6,42-8.2c28.5-7.4,56.2-17.9,83.5-28.9c13.9-5.6,27.6-11.4,41.3-17.4c12.5-5.5,25-10.9,37-17.4
				c11.2-6.1,22-13.3,31.2-22.3c8.7-8.5,15.7-18.6,21.1-29.5c10.9-21.9,15.7-46.3,18.9-70.4c3.9-29.8,5.9-59.9,6.1-89.9
				c0-7.6-0.1-15.2-0.3-22.8C739.8,67.5,736.8,67.5,736.9,69.4L736.9,69.4z"/>
		</g>
	</g>
	<g>
		<g>
			<path class="st0" d="M808.2,55.6c-0.5,22-0.8,44.2,3.4,65.9c4,20.5,12.7,39.5,26.9,54.8c30.1,32.3,74.5,42.9,117,45.7
				c44.4,2.9,93.5-3.6,132.7,22.2c8.1,5.4,15.5,12,21.3,19.9c6.4,8.7,10.4,18.7,12.8,29.2c2.7,11.7,4.1,23.8,5.9,35.7
				c1.9,12.7,3.7,25.5,5.4,38.2c6.7,49.9,11.5,100.2,9.2,150.5c-0.3,6.3-0.7,12.6-1.2,18.9c-0.2,1.9,2.8,1.9,3,0
				c4.2-50.5,0.5-101.3-5.7-151.5c-3.1-24.9-6.7-49.8-10.4-74.6c-1.7-11.3-3.6-22.7-8.1-33.3c-3.7-8.7-9.1-16.6-15.7-23.3
				c-13.2-13.5-30.8-22.3-48.9-27.1c-23.4-6.2-47.9-6.2-71.9-6.7c-44.9-0.8-92.8-4.8-129.6-33.4c-16.3-12.7-28.8-29.4-35.4-49
				c-7.1-21-8.1-43.5-8-65.4c0-5.6,0.1-11.1,0.3-16.7C811.3,53.7,808.3,53.7,808.2,55.6L808.2,55.6z"/>
		</g>
	</g>
	<g>
		<g>
			<path class="st0" d="M942.2,57.1c0,36.3-3.4,72.5-10.1,108.1c-6,31.4-13.1,65.2-32.4,91.5c-19.1,25.9-49.1,42.2-77.8,55.4
				c-29.6,13.6-60.9,23.4-92.5,31.2c-65.4,16.1-132.6,24.6-198.6,37.9c-71,14.3-141.3,31.3-211.5,49.1c-17.7,4.5-35.3,9.1-52.9,13.6
				c-15.3,4-30.9,7.5-45.6,13.4c-12.7,5.1-25.1,12.3-33.6,23.2c-7.6,9.7-12.6,22.3-11.7,34.8c0.4,5.9,2.2,11.5,5.2,16.6
				c1,1.7,3.6,0.2,2.6-1.5c-7.2-12.1-5.7-26.9,0.6-39.2c6.8-13.2,18.6-22.3,31.8-28.5c14.5-6.8,30.3-10.4,45.7-14.5
				c17.4-4.5,34.8-9,52.2-13.5c69.6-17.8,139.5-34.8,209.9-49.2c34.2-7,68.5-13.1,102.8-19c32.1-5.5,64.2-11.1,96-18.6
				c31.1-7.3,61.8-16.5,91.3-29c28.1-12,57.1-26.7,78.5-48.8c21.8-22.5,31.5-52.6,38.3-82.5c7.8-34.2,12.6-69,14.2-104.1
				c0.4-8.8,0.6-17.7,0.6-26.5C945.2,55.1,942.2,55.1,942.2,57.1L942.2,57.1z"/>
		</g>
	</g>
	<g>
		<g>
			<path class="st0" d="M769.9,66.5c2.2,30.2,4.6,60.5,9.4,90.4c4.7,29.4,11.9,58.5,23.7,85.9c6,13.9,13.2,27.2,21.7,39.7
				c9.2,13.5,19.5,26.1,28.6,39.6c18.1,26.9,29.4,57.8,32.9,89.9c1.9,17.5,1.8,35.1,2,52.6c0.2,17.7,0.4,35.4,0.5,53.1
				c0,4.3,0.1,8.6,0.1,12.9c0,1.9,3,1.9,3,0c-0.2-17.7-0.4-35.4-0.5-53.1c-0.2-17.6,0-35.2-1.1-52.8c-1.9-32-10.3-63.1-26.2-91
				c-8.1-14.2-18.2-27.1-27.9-40.2c-9.2-12.5-17.7-25.4-24.6-39.2c-13.5-27-21.8-56.2-27.3-85.8c-5.6-30.1-8.3-60.6-10.7-91.1
				c-0.3-3.7-0.6-7.3-0.8-11C772.7,64.6,769.7,64.6,769.9,66.5L769.9,66.5z"/>
		</g>
	</g>
	<g>
		<g>
			<path class="st0" d="M1147.7,63.2c5,59.9,8.5,120,10.5,180.1c2,59.8,2.4,119.7,1.3,179.5c-0.6,33.9-1.7,67.8-3.3,101.6
				c-0.1,1.9,2.9,1.9,3,0c2.8-60.1,4.1-120.2,3.8-180.4c-0.3-59.8-2-119.7-5.3-179.4c-1.9-33.8-4.2-67.6-7-101.4
				C1150.6,61.3,1147.6,61.3,1147.7,63.2L1147.7,63.2z"/>
		</g>
	</g>
	<g>
		<g>
			<path class="st0" d="M1049.3,55.6c-1.3,55.8,6.8,113.7-12.9,167.4c-16,43.6-47.8,79.9-85.3,106.8
				c-42.3,30.3-91.8,48.1-142.2,59.3c-27.3,6-54.9,10.1-82.6,13.5c-25.5,3.1-51.4,4.5-76.5,10c-22.8,5-45.2,14.4-60.6,32.4
				c-15,17.6-22.4,40.6-23.2,63.5c-0.2,5.7,0,11.4,0.6,17c0.2,1.9,3.2,1.9,3,0c-2.4-23.4,1.8-47.9,14.3-68.1
				c13-20.9,34.2-33.3,57.5-39.7c24.5-6.7,50.2-8.1,75.4-11c27.7-3.2,55.4-7,82.7-12.5c50.9-10.3,101.3-26.9,144.8-55.9
				c37.8-25.2,70.7-59.3,89.6-101c10.6-23.5,15.9-48.6,17.9-74.3c2.2-28.7,0.7-57.6,0.5-86.4c-0.1-7,0-13.9,0.1-20.9
				C1052.3,53.6,1049.3,53.6,1049.3,55.6L1049.3,55.6z"/>
		</g>
	</g>
</g>
<g id="things">
	<g>
		<g>
			<path class="st1" d="M132.7,66.2h-107c-3.9,0-7-3.2-7-7v-33c0-3.9,3.1-7,7-7h107c3.9,0,7,3.1,7,7v33
				C139.7,63,136.5,66.2,132.7,66.2z"/>
			<g>
				<path class="st2" d="M39.2,51.6l-0.1-1.3c-1.2,1-2.6,1.5-4,1.5c-3.3,0-6.9-2.4-6.9-9c0-6.6,3.6-9,6.9-9c2.4,0,4.9,1.3,6,4.7
					l-2.2,0.5c-0.8-2.4-2.3-3.1-3.8-3.1c-2,0-4.5,1.2-4.5,6.8c0,5.7,2.5,6.8,4.6,6.8c1.5,0,3.1-0.6,3.9-3V45h-3.8v-2.2h6.1v8.8H39.2
					z"/>
				<path class="st2" d="M44.1,51.6V33.8H55V36h-8.5v5.5h5.3v2.2h-5.3v5.7H55v2.2H44.1z"/>
				<path class="st2" d="M66.5,51.6l-5.1-7.7h-1.9v7.7h-2.3V33.8H63c3.6,0,5.6,2,5.6,5.1c0,2.8-1.6,4.6-4.5,4.9l5,7.7H66.5z
					 M62.9,41.7c2.1,0,3.4-0.9,3.4-2.8S65,36,62.9,36h-3.3v5.7H62.9z"/>
				<path class="st2" d="M82.7,51.6V37.8l-4.1,7.5h-1.2l-4.1-7.5v13.8h-2.3V33.8h2.5l4.5,8.1l4.5-8.1H85v17.8H82.7z"/>
				<path class="st2" d="M98.4,51.6L96.9,47h-6.5l-1.5,4.5h-2.4l5.8-17.8h2.5l5.8,17.8H98.4z M93.6,37l-2.5,7.8h5.1L93.6,37z"/>
				<path class="st2" d="M113.1,51.6l-8.5-13.7v13.7h-2.3V33.8h2.4l8.5,13.7V33.8h2.3v17.8H113.1z"/>
				<path class="st2" d="M122.5,51.6v-6.9l-5.4-10.9h2.4l4.1,8.1l4.1-8.1h2.4l-5.4,10.9v6.9H122.5z"/>
			</g>
		</g>
		<g>
			<path class="st1" d="M613.3,66.2H504.6c-3.9,0-7-3.2-7-7v-33c0-3.9,3.1-7,7-7h108.6c3.8,0,7,3.1,7,7v33
				C620.3,63,617.1,66.2,613.3,66.2z"/>
			<g>
				<g>
					<path class="st2" d="M507.6,51.6V33.8h5.4c3.3,0,6.9,2.4,6.9,8.9c0,6.4-3.4,8.9-6.6,8.9H507.6z M513,49.4c2,0,4.5-1.2,4.5-6.6
						c0-5.6-2.6-6.8-4.8-6.8h-2.8v13.4H513z"/>
					<path class="st2" d="M522.7,51.6V33.8h10.8V36H525v5.5h5.3v2.2H525v5.7h8.5v2.2H522.7z"/>
					<path class="st2" d="M546.6,51.6l-8.5-13.7v13.7h-2.3V33.8h2.4l8.5,13.7V33.8h2.3v17.8H546.6z"/>
					<path class="st2" d="M563.8,51.6V37.8l-4.1,7.5h-1.2l-4.1-7.5v13.8H552V33.8h2.5l4.5,8.1l4.5-8.1h2.5v17.8H563.8z"/>
					<path class="st2" d="M579.5,51.6L578,47h-6.5l-1.5,4.5h-2.4l5.8-17.8h2.5l5.8,17.8H579.5z M574.7,37l-2.5,7.8h5.1L574.7,37z"/>
					<path class="st2" d="M592.6,51.6l-5.1-7.7h-1.9v7.7h-2.3V33.8h5.8c3.6,0,5.6,2,5.6,5.1c0,2.8-1.6,4.6-4.5,4.9l5,7.7H592.6z
						 M589,41.7c2.1,0,3.4-0.9,3.4-2.8S591.1,36,589,36h-3.3v5.7H589z"/>
					<path class="st2" d="M607.5,51.6l-6.4-8.4l-1.7,1.9v6.5h-2.3V33.8h2.3v8.1l7.2-8.1h2.9l-6.9,7.7l7.7,10.1H607.5z"/>
				</g>
			</g>
		</g>
		<g>
			<path class="st1" d="M816.4,66.2h-96.5c-3.8,0-7-3.2-7-7v-33c0-3.9,3.2-7,7-7h96.5c3.8,0,7,3.1,7,7v33
				C823.4,63,820.3,66.2,816.4,66.2z"/>
			<g>
				<g>
					<path class="st2" d="M733.8,51.6l-8.5-13.7v13.7h-2.3V33.8h2.4l8.5,13.7V33.8h2.3v17.8H733.8z"/>
					<path class="st2" d="M739,42.7c0-6.6,3.6-9,6.9-9c3.4,0,6.9,2.4,6.9,9s-3.6,9-6.9,9C742.5,51.7,739,49.3,739,42.7z M750.5,42.7
						c0-5.6-2.5-6.8-4.6-6.8c-2.1,0-4.6,1.2-4.6,6.8c0,5.7,2.5,6.8,4.6,6.8C748,49.5,750.5,48.3,750.5,42.7z"/>
					<path class="st2" d="M764.9,51.6l-5.1-7.7h-1.9v7.7h-2.3V33.8h5.8c3.6,0,5.6,2,5.6,5.1c0,2.8-1.6,4.6-4.5,4.9l5,7.7H764.9z
						 M761.2,41.7c2.1,0,3.4-0.9,3.4-2.8s-1.3-2.9-3.4-2.9h-3.3v5.7H761.2z"/>
					<path class="st2" d="M780.9,51.6l-3-11.8l-3,11.8h-2.3l-4.3-17.8h2.4l3.1,13.7l3-11.2h2.3l2.9,11.2l3.1-13.7h2.4l-4.3,17.8
						H780.9z"/>
					<path class="st2" d="M799.4,51.6l-1.5-4.5h-6.5l-1.5,4.5h-2.4l5.8-17.8h2.5l5.8,17.8H799.4z M794.7,37l-2.5,7.8h5.1L794.7,37z"
						/>
					<path class="st2" d="M805.7,51.6v-6.9l-5.4-10.9h2.4l4.1,8.1l4.1-8.1h2.4L808,44.7v6.9H805.7z"/>
				</g>
			</g>
		</g>
		<g>
			<path class="st1" d="M1172.4,66.2H923c-3.8,0-7-3.2-7-7v-33c0-3.9,3.2-7,7-7h249.3c3.8,0,7,3.1,7,7v33
				C1179.4,63,1176.2,66.2,1172.4,66.2z"/>
			<g>
				<g>
					<path class="st2" d="M926,51.6V33.8h5.3c3.6,0,5.6,2,5.6,5c0,1.7-0.6,2.9-1.8,3.7c1.5,0.8,2.3,2.2,2.3,4.1c0,3-2,5-5.6,5H926z
						 M931.2,41.5c2.1,0,3.4-0.9,3.4-2.7c0-1.8-1.3-2.8-3.4-2.8h-2.8v5.5H931.2z M931.7,49.4c2.1,0,3.4-1,3.4-2.8
						c0-1.9-1.3-2.8-3.4-2.8h-3.3v5.7H931.7z"/>
					<path class="st2" d="M939.9,51.6V33.8h10.8V36h-8.5v5.5h5.3v2.2h-5.3v5.7h8.5v2.2H939.9z"/>
					<path class="st2" d="M953,51.6V33.8h2.3v15.6h6.7v2.2H953z"/>
					<path class="st2" d="M974.2,51.6l-0.1-1.3c-1.2,1-2.6,1.5-4,1.5c-3.3,0-6.9-2.4-6.9-9c0-6.6,3.6-9,6.9-9c2.4,0,4.9,1.3,6,4.7
						l-2.2,0.5c-0.8-2.4-2.3-3.1-3.8-3.1c-2,0-4.5,1.2-4.5,6.8c0,5.7,2.5,6.8,4.6,6.8c1.5,0,3.1-0.6,3.9-3V45h-3.8v-2.2h6.1v8.8
						H974.2z"/>
					<path class="st2" d="M978.5,51.6v-1.8h3.3V35.6h-3.3v-1.8h9v1.8h-3.3v14.2h3.3v1.8H978.5z"/>
					<path class="st2" d="M999.5,33.8h2.3v12.3c0,3.6-2.3,5.6-5.9,5.6s-5.9-2-5.9-5.6V33.8h2.3v12.2c0,2.2,1.2,3.6,3.6,3.6
						s3.6-1.3,3.6-3.6V33.8z"/>
					<path class="st2" d="M1016.5,51.6V37.8l-4.1,7.5h-1.2l-4.1-7.5v13.8h-2.3V33.8h2.5l4.5,8.1l4.5-8.1h2.5v17.8H1016.5z"/>
					<path class="st2" d="M1027.8,51.6V33.8h2.3v15.6h6.7v2.2H1027.8z"/>
					<path class="st2" d="M1048.2,33.8h2.3v12.3c0,3.6-2.3,5.6-5.9,5.6s-5.9-2-5.9-5.6V33.8h2.3v12.2c0,2.2,1.2,3.6,3.6,3.6
						s3.6-1.3,3.6-3.6V33.8z"/>
					<path class="st2" d="M1063.3,51.6l-4.3-7.1l-4.3,7.1h-2.7l5.6-9.3l-5.1-8.5h2.6l3.8,6.3l3.8-6.3h2.6l-5.1,8.5l5.6,9.3H1063.3z"
						/>
					<path class="st2" d="M1067.5,51.6V33.8h10.8V36h-8.5v5.5h5.3v2.2h-5.3v5.7h8.5v2.2H1067.5z"/>
					<path class="st2" d="M1092.3,51.6V37.8l-4.1,7.5h-1.2l-4.1-7.5v13.8h-2.3V33.8h2.5l4.5,8.1l4.5-8.1h2.5v17.8H1092.3z"/>
					<path class="st2" d="M1097.6,51.6V33.8h5.3c3.6,0,5.6,2,5.6,5c0,1.7-0.6,2.9-1.8,3.7c1.5,0.8,2.3,2.2,2.3,4.1c0,3-2,5-5.6,5
						H1097.6z M1102.8,41.5c2.1,0,3.4-0.9,3.4-2.7c0-1.8-1.3-2.8-3.4-2.8h-2.8v5.5H1102.8z M1103.3,49.4c2.1,0,3.4-1,3.4-2.8
						c0-1.9-1.3-2.8-3.4-2.8h-3.3v5.7H1103.3z"/>
					<path class="st2" d="M1111.3,42.7c0-6.6,3.6-9,6.9-9c3.4,0,6.9,2.4,6.9,9s-3.6,9-6.9,9C1114.9,51.7,1111.3,49.3,1111.3,42.7z
						 M1122.8,42.7c0-5.6-2.5-6.8-4.6-6.8c-2.1,0-4.6,1.2-4.6,6.8c0,5.7,2.5,6.8,4.6,6.8C1120.3,49.5,1122.8,48.3,1122.8,42.7z"/>
					<path class="st2" d="M1137.5,33.8h2.3v12.3c0,3.6-2.3,5.6-5.9,5.6s-5.9-2-5.9-5.6V33.8h2.3v12.2c0,2.2,1.2,3.6,3.6,3.6
						c2.4,0,3.6-1.3,3.6-3.6V33.8z"/>
					<path class="st2" d="M1152.1,51.6l-5.1-7.7h-1.9v7.7h-2.3V33.8h5.8c3.6,0,5.6,2,5.6,5.1c0,2.8-1.6,4.6-4.5,4.9l5,7.7H1152.1z
						 M1148.4,41.7c2.1,0,3.4-0.9,3.4-2.8s-1.3-2.9-3.4-2.9h-3.3v5.7H1148.4z"/>
					<path class="st2" d="M1167.3,51.6l-0.1-1.3c-1.2,1-2.6,1.5-4,1.5c-3.3,0-6.9-2.4-6.9-9c0-6.6,3.6-9,6.9-9c2.4,0,4.9,1.3,6,4.7
						l-2.2,0.5c-0.8-2.4-2.3-3.1-3.8-3.1c-2,0-4.5,1.2-4.5,6.8c0,5.7,2.5,6.8,4.6,6.8c1.5,0,3.1-0.6,3.9-3V45h-3.8v-2.2h6.1v8.8
						H1167.3z"/>
				</g>
			</g>
		</g>
		<g>
			<path class="st1" d="M398,66.2H239.3c-3.9,0-7-3.2-7-7v-33c0-3.9,3.1-7,7-7H398c3.9,0,7,3.1,7,7v33C405,63,401.9,66.2,398,66.2z"
				/>
			<g>
				<g>
					<path class="st2" d="M253.1,51.6l-8.5-13.7v13.7h-2.3V33.8h2.4l8.5,13.7V33.8h2.3v17.8H253.1z"/>
					<path class="st2" d="M258.6,51.6V33.8h10.8V36h-8.5v5.5h5.3v2.2h-5.3v5.7h8.5v2.2H258.6z"/>
					<path class="st2" d="M275.9,51.6V36h-5.2v-2.2h12.7V36h-5.2v15.6H275.9z"/>
					<path class="st2" d="M294.7,51.6v-7.8h-7.4v7.8H285V33.8h2.3v7.8h7.4v-7.8h2.3v17.8H294.7z"/>
					<path class="st2" d="M300,51.6V33.8h10.8V36h-8.5v5.5h5.3v2.2h-5.3v5.7h8.5v2.2H300z"/>
					<path class="st2" d="M322.3,51.6l-5.1-7.7h-1.9v7.7h-2.3V33.8h5.8c3.6,0,5.6,2,5.6,5.1c0,2.8-1.6,4.6-4.5,4.9l5,7.7H322.3z
						 M318.7,41.7c2.1,0,3.4-0.9,3.4-2.8s-1.3-2.9-3.4-2.9h-3.3v5.7H318.7z"/>
					<path class="st2" d="M326.8,51.6V33.8h2.3v15.6h6.7v2.2H326.8z"/>
					<path class="st2" d="M348.7,51.6l-1.5-4.5h-6.5l-1.5,4.5h-2.4l5.8-17.8h2.5l5.8,17.8H348.7z M344,37l-2.5,7.8h5.1L344,37z"/>
					<path class="st2" d="M363.5,51.6L355,37.8v13.7h-2.3V33.8h2.4l8.5,13.7V33.8h2.3v17.8H363.5z"/>
					<path class="st2" d="M368.9,51.6V33.8h5.4c3.3,0,6.9,2.4,6.9,8.9c0,6.4-3.4,8.9-6.6,8.9H368.9z M374.3,49.4
						c2,0,4.5-1.2,4.5-6.6c0-5.6-2.6-6.8-4.8-6.8h-2.8v13.4H374.3z"/>
					<path class="st2" d="M387.1,42.9c-2-0.8-3.3-2-3.3-4.3c0-3.1,2.4-5,5.5-5s5.2,1.9,5.2,5l-2.1,0.4c-0.2-2.2-1.4-3.3-3.2-3.3
						c-1.6,0-3.1,0.9-3.1,2.5c0,1.7,1.4,2.2,2.7,2.7l2.6,1c2.1,0.8,3.7,1.9,3.7,4.5c0,3.3-2.5,5-5.8,5c-3.5,0-6-2-6-5.4l2-0.5
						c0.2,2.3,1.5,3.7,3.9,3.7c1.7,0,3.5-0.7,3.5-2.7c0-1.8-1.5-2.3-3.1-2.9L387.1,42.9z"/>
				</g>
			</g>
		</g>
	</g>
	<g>
		<g>
			<path class="st1" d="M1170,581.2h-119.6c-5.5,0-10-4.5-10-10v-42.3c0-5.5,4.5-10,10-10H1170c5.5,0,10,4.5,10,10v42.3
				C1180,576.7,1175.5,581.2,1170,581.2z"/>
			<g>
				<g>
					<path class="st2" d="M1071.9,562.5v-19.3l-5.8,10.5h-1.7l-5.8-10.5v19.3h-3.2v-24.9h3.5l6.3,11.4l6.3-11.4h3.5v24.9H1071.9z"/>
					<path class="st2" d="M1079.3,562.5v-24.9h15.2v3.1h-12v7.7h7.4v3.1h-7.4v7.9h12v3.1H1079.3z"/>
					<path class="st2" d="M1103.5,562.5v-21.8h-7.3v-3.1h17.9v3.1h-7.3v21.8H1103.5z"/>
					<path class="st2" d="M1128.4,562.5l-2.1-6.4h-9.1l-2.1,6.4h-3.3l8.2-24.9h3.5l8.2,24.9H1128.4z M1121.8,542.1l-3.6,10.9h7.1
						L1121.8,542.1z"/>
					<path class="st2" d="M1133.9,562.5v-24.9h3.2v21.8h9.4v3.1H1133.9z"/>
					<path class="st2" d="M1153.9,550.4c-2.8-1.1-4.7-2.8-4.7-6.1c0-4.4,3.4-7,7.7-7c4.3,0,7.2,2.6,7.2,7.1l-2.9,0.6
						c-0.3-3.2-2-4.6-4.4-4.6c-2.2,0-4.3,1.2-4.3,3.6c0,2.3,2,3.1,3.7,3.8l3.6,1.4c2.9,1.2,5.1,2.7,5.1,6.4c0,4.6-3.6,7.1-8.1,7.1
						c-4.9,0-8.4-2.9-8.4-7.6l2.9-0.6c0.4,3.2,2.1,5.2,5.5,5.2c2.4,0,4.9-1.1,4.9-3.7c0-2.5-2.1-3.3-4.3-4.1L1153.9,550.4z"/>
				</g>
			</g>
		</g>
		<g>
			<path class="st1" d="M912.6,581.2H751.9c-5.5,0-10-4.5-10-10v-42.3c0-5.5,4.5-10,10-10h160.7c5.5,0,10,4.5,10,10v42.3
				C922.6,576.7,918.1,581.2,912.6,581.2z"/>
			<g>
				<g>
					<path class="st2" d="M773.4,562.5v-19.3l-5.8,10.5h-1.7l-5.8-10.5v19.3h-3.2v-24.9h3.5l6.3,11.4l6.3-11.4h3.5v24.9H773.4z"/>
					<path class="st2" d="M779.9,562.5v-2.5h4.7v-19.9h-4.7v-2.5h12.6v2.5h-4.7v19.9h4.7v2.5H779.9z"/>
					<path class="st2" d="M811,562.5l-12-19.3v19.3h-3.2v-24.9h3.4l12,19.2v-19.2h3.2v24.9H811z"/>
					<path class="st2" d="M818.6,562.5v-24.9h15.2v3.1h-12v7.7h7.4v3.1h-7.4v7.9h12v3.1H818.6z"/>
					<path class="st2" d="M849.9,562.5l-7.1-10.7h-2.6v10.7H837v-24.9h8.1c5,0,7.8,2.8,7.8,7.2c0,3.9-2.2,6.4-6.4,6.9l7,10.8H849.9z
						 M844.8,548.6c3,0,4.8-1.3,4.8-3.9s-1.8-4.1-4.8-4.1h-4.7v8H844.8z"/>
					<path class="st2" d="M871,562.5l-2.1-6.4h-9.1l-2.1,6.4h-3.3l8.2-24.9h3.5l8.2,24.9H871z M864.4,542.1l-3.6,10.9h7.1
						L864.4,542.1z"/>
					<path class="st2" d="M876.5,562.5v-24.9h3.2v21.8h9.4v3.1H876.5z"/>
					<path class="st2" d="M896.5,550.4c-2.8-1.1-4.7-2.8-4.7-6.1c0-4.4,3.4-7,7.7-7c4.3,0,7.2,2.6,7.2,7.1l-2.9,0.6
						c-0.3-3.2-2-4.6-4.4-4.6c-2.2,0-4.3,1.2-4.3,3.6c0,2.3,2,3.1,3.7,3.8l3.6,1.4c2.9,1.2,5.1,2.7,5.1,6.4c0,4.6-3.6,7.1-8.1,7.1
						c-4.9,0-8.4-2.9-8.4-7.6l2.9-0.6c0.4,3.2,2.1,5.2,5.5,5.2c2.4,0,4.9-1.1,4.9-3.7c0-2.5-2.1-3.3-4.3-4.1L896.5,550.4z"/>
				</g>
			</g>
		</g>
		<g>
			<path class="st1" d="M614.1,581.2H334.3c-5.5,0-10-4.5-10-10v-42.3c0-5.5,4.5-10,10-10h279.7c5.5,0,10,4.5,10,10v42.3
				C624.1,576.7,619.6,581.2,614.1,581.2z"/>
			<g>
				<g>
					<path class="st2" d="M346.7,562.5v-21.8h-7.3v-3.1h17.9v3.1h-7.3v21.8H346.7z"/>
					<path class="st2" d="M372.4,562.5l-7.1-10.7h-2.6v10.7h-3.2v-24.9h8.1c5,0,7.8,2.8,7.8,7.2c0,3.9-2.2,6.4-6.4,6.9l7,10.8H372.4
						z M367.3,548.6c3,0,4.8-1.3,4.8-3.9s-1.8-4.1-4.8-4.1h-4.7v8H367.3z"/>
					<path class="st2" d="M393.5,562.5l-2.1-6.4h-9.1l-2.1,6.4H377l8.2-24.9h3.5l8.2,24.9H393.5z M386.9,542.1l-3.6,10.9h7.1
						L386.9,542.1z"/>
					<path class="st2" d="M414.2,562.5l-12-19.3v19.3H399v-24.9h3.4l12,19.2v-19.2h3.2v24.9H414.2z"/>
					<path class="st2" d="M426.2,550.4c-2.8-1.1-4.7-2.8-4.7-6.1c0-4.4,3.4-7,7.7-7c4.3,0,7.2,2.6,7.2,7.1l-2.9,0.6
						c-0.3-3.2-2-4.6-4.4-4.6c-2.2,0-4.3,1.2-4.3,3.6c0,2.3,2,3.1,3.7,3.8l3.6,1.4c2.9,1.2,5.1,2.7,5.1,6.4c0,4.6-3.6,7.1-8.1,7.1
						c-4.9,0-8.4-2.9-8.4-7.6l2.9-0.6c0.4,3.2,2.1,5.2,5.5,5.2c2.4,0,4.9-1.1,4.9-3.7c0-2.5-2.1-3.3-4.3-4.1L426.2,550.4z"/>
					<path class="st2" d="M440.4,562.5v-24.9h8.1c5,0,7.8,3,7.8,7.5c0,4.5-2.8,7.4-7.8,7.4h-4.9v10H440.4z M448.3,549.3
						c3,0,4.8-1.4,4.8-4.3s-1.8-4.4-4.8-4.4h-4.7v8.7H448.3z"/>
					<path class="st2" d="M459.4,550c0-9.3,5-12.7,9.7-12.7c4.7,0,9.7,3.4,9.7,12.7c0,9.3-5,12.7-9.7,12.7
						C464.4,562.7,459.4,559.3,459.4,550z M475.5,550c0-7.9-3.5-9.6-6.4-9.6c-2.9,0-6.4,1.7-6.4,9.6c0,7.9,3.5,9.6,6.4,9.6
						C472,559.6,475.5,557.9,475.5,550z"/>
					<path class="st2" d="M495.6,562.5l-7.1-10.7h-2.6v10.7h-3.2v-24.9h8.1c5,0,7.8,2.8,7.8,7.2c0,3.9-2.2,6.4-6.4,6.9l7,10.8H495.6
						z M490.5,548.6c3,0,4.8-1.3,4.8-3.9s-1.8-4.1-4.8-4.1h-4.7v8H490.5z"/>
					<path class="st2" d="M507.2,562.5v-21.8h-7.3v-3.1h17.9v3.1h-7.3v21.8H507.2z"/>
					<path class="st2" d="M532.1,562.5l-2.1-6.4H521l-2.1,6.4h-3.3l8.2-24.9h3.5l8.2,24.9H532.1z M525.5,542.1l-3.6,10.9h7.1
						L525.5,542.1z"/>
					<path class="st2" d="M540.6,562.5v-21.8h-7.3v-3.1h17.9v3.1h-7.3v21.8H540.6z"/>
					<path class="st2" d="M552.8,562.5v-2.5h4.7v-19.9h-4.7v-2.5h12.6v2.5h-4.7v19.9h4.7v2.5H552.8z"/>
					<path class="st2" d="M567.2,550c0-9.3,5-12.7,9.7-12.7c4.7,0,9.7,3.4,9.7,12.7c0,9.3-5,12.7-9.7,12.7
						C572.2,562.7,567.2,559.3,567.2,550z M583.4,550c0-7.9-3.5-9.6-6.4-9.6c-2.9,0-6.4,1.7-6.4,9.6c0,7.9,3.5,9.6,6.4,9.6
						C579.9,559.6,583.4,557.9,583.4,550z"/>
					<path class="st2" d="M605.7,562.5l-12-19.3v19.3h-3.2v-24.9h3.4l12,19.2v-19.2h3.2v24.9H605.7z"/>
				</g>
			</g>
		</g>
		<g>
			<path class="st1" d="M196.5,581.2h-167c-5.5,0-10-4.5-10-10v-42.3c0-5.5,4.5-10,10-10h167c5.5,0,10,4.5,10,10v42.3
				C206.5,576.7,202,581.2,196.5,581.2z"/>
			<g>
				<path class="st2" d="M51.1,562.9v-19.3l-5.8,10.5h-1.7l-5.8-10.5v19.3h-3.2V538h3.5l6.3,11.4l6.3-11.4h3.5v24.9H51.1z"/>
				<path class="st2" d="M73.1,562.9l-2.1-6.4h-9.1l-2.1,6.4h-3.3l8.2-24.9h3.5l8.2,24.9H73.1z M66.4,542.5l-3.6,10.9H70L66.4,542.5
					z"/>
				<path class="st2" d="M95.9,556.5c-1.6,4.8-5.1,6.6-8.5,6.6c-4.6,0-9.7-3.4-9.7-12.7c0-9.3,5-12.7,9.7-12.7
					c3.4,0,6.9,1.8,8.5,6.6l-3.1,0.8c-1.1-3.4-3.4-4.3-5.4-4.3c-2.8,0-6.4,1.7-6.4,9.6c0,7.9,3.5,9.6,6.4,9.6c2,0,4.2-0.8,5.4-4.2
					L95.9,556.5z"/>
				<path class="st2" d="M112.9,562.9V552h-10.3v10.9h-3.2V538h3.2v10.9h10.3V538h3.2v24.9H112.9z"/>
				<path class="st2" d="M119.5,562.9v-2.5h4.7v-19.9h-4.7V538h12.6v2.5h-4.7v19.9h4.7v2.5H119.5z"/>
				<path class="st2" d="M150.6,562.9l-12-19.3v19.3h-3.2V538h3.4l12,19.2V538h3.2v24.9H150.6z"/>
				<path class="st2" d="M158.2,562.9V538h15.2v3.1h-12v7.7h7.4v3.1h-7.4v7.9h12v3.1H158.2z"/>
				<path class="st2" d="M180.9,550.8c-2.8-1.1-4.7-2.8-4.7-6.1c0-4.4,3.4-7,7.7-7c4.3,0,7.2,2.6,7.2,7.1l-2.9,0.6
					c-0.3-3.2-2-4.6-4.4-4.6c-2.2,0-4.3,1.2-4.3,3.6c0,2.3,2,3.1,3.7,3.8l3.6,1.4c2.9,1.2,5.1,2.7,5.1,6.4c0,4.6-3.6,7.1-8.1,7.1
					c-4.9,0-8.4-2.9-8.4-7.6l2.9-0.6c0.4,3.2,2.1,5.2,5.5,5.2c2.4,0,4.9-1.1,4.9-3.7c0-2.5-2.1-3.3-4.3-4.1L180.9,550.8z"/>
			</g>
		</g>
	</g>
</g>
</svg>
